<mxfile host="app.diagrams.net" modified="2023-03-31T06:48:16.736Z" agent="Mozilla/5.0 (Windows NT 10.0; Win64; x64) AppleWebKit/537.36 (KHTML, like Gecko) Chrome/111.0.0.0 Safari/537.36" etag="RonIDxqJXpIbUtYFyHwS" version="21.1.2" type="github">
  <diagram name="Page-1" id="2S65_K8TlIW-I9RaxmhA">
    <mxGraphModel dx="1468" dy="914" grid="1" gridSize="10" guides="1" tooltips="1" connect="1" arrows="1" fold="1" page="1" pageScale="1" pageWidth="2500" pageHeight="1500" math="0" shadow="0">
      <root>
        <mxCell id="0" />
        <mxCell id="1" parent="0" />
        <mxCell id="SJSmvKwEZ4cIt8mxZRy5-101" value="User" style="swimlane;fontStyle=0;childLayout=stackLayout;horizontal=1;startSize=26;fillColor=#F0F0F0;horizontalStack=0;resizeParent=1;resizeParentMax=0;resizeLast=0;collapsible=1;marginBottom=0;swimlaneFillColor=none;align=center;strokeWidth=1;fontSize=13;strokeColor=#000000;rounded=0;" vertex="1" parent="1">
          <mxGeometry x="880" y="226" width="160" height="144" as="geometry" />
        </mxCell>
        <mxCell id="SJSmvKwEZ4cIt8mxZRy5-102" value="UserID" style="shape=partialRectangle;top=0;left=0;right=0;bottom=1;align=left;verticalAlign=middle;fillColor=none;spacingLeft=34;spacingRight=4;overflow=hidden;rotatable=0;points=[[0,0.5],[1,0.5]];portConstraint=eastwest;dropTarget=0;fontStyle=5;rounded=0;" vertex="1" parent="SJSmvKwEZ4cIt8mxZRy5-101">
          <mxGeometry y="26" width="160" height="30" as="geometry" />
        </mxCell>
        <mxCell id="SJSmvKwEZ4cIt8mxZRy5-103" value="PK" style="shape=partialRectangle;top=0;left=0;bottom=0;fillColor=none;align=left;verticalAlign=middle;spacingLeft=4;spacingRight=4;overflow=hidden;rotatable=0;points=[];portConstraint=eastwest;part=1;fontStyle=1;rounded=0;" vertex="1" connectable="0" parent="SJSmvKwEZ4cIt8mxZRy5-102">
          <mxGeometry width="30" height="30" as="geometry" />
        </mxCell>
        <mxCell id="SJSmvKwEZ4cIt8mxZRy5-106" value="avatar_url" style="shape=partialRectangle;top=0;left=0;right=0;bottom=0;align=left;verticalAlign=top;fillColor=none;spacingLeft=34;spacingRight=4;overflow=hidden;rotatable=0;points=[[0,0.5],[1,0.5]];portConstraint=eastwest;dropTarget=0;rounded=0;" vertex="1" parent="SJSmvKwEZ4cIt8mxZRy5-101">
          <mxGeometry y="56" width="160" height="26" as="geometry" />
        </mxCell>
        <mxCell id="SJSmvKwEZ4cIt8mxZRy5-107" value="" style="shape=partialRectangle;top=0;left=0;bottom=0;fillColor=none;align=left;verticalAlign=top;spacingLeft=4;spacingRight=4;overflow=hidden;rotatable=0;points=[];portConstraint=eastwest;part=1;rounded=0;" vertex="1" connectable="0" parent="SJSmvKwEZ4cIt8mxZRy5-106">
          <mxGeometry width="30" height="26" as="geometry" />
        </mxCell>
        <mxCell id="SJSmvKwEZ4cIt8mxZRy5-108" value="role" style="shape=partialRectangle;top=0;left=0;right=0;bottom=0;align=left;verticalAlign=top;fillColor=none;spacingLeft=34;spacingRight=4;overflow=hidden;rotatable=0;points=[[0,0.5],[1,0.5]];portConstraint=eastwest;dropTarget=0;rounded=0;" vertex="1" parent="SJSmvKwEZ4cIt8mxZRy5-101">
          <mxGeometry y="82" width="160" height="26" as="geometry" />
        </mxCell>
        <mxCell id="SJSmvKwEZ4cIt8mxZRy5-109" value="" style="shape=partialRectangle;top=0;left=0;bottom=0;fillColor=none;align=left;verticalAlign=top;spacingLeft=4;spacingRight=4;overflow=hidden;rotatable=0;points=[];portConstraint=eastwest;part=1;rounded=0;" vertex="1" connectable="0" parent="SJSmvKwEZ4cIt8mxZRy5-108">
          <mxGeometry width="30" height="26" as="geometry" />
        </mxCell>
        <mxCell id="SJSmvKwEZ4cIt8mxZRy5-113" value="user_metadata" style="shape=partialRectangle;top=0;left=0;right=0;bottom=0;align=left;verticalAlign=top;fillColor=none;spacingLeft=34;spacingRight=4;overflow=hidden;rotatable=0;points=[[0,0.5],[1,0.5]];portConstraint=eastwest;dropTarget=0;rounded=0;" vertex="1" parent="SJSmvKwEZ4cIt8mxZRy5-101">
          <mxGeometry y="108" width="160" height="26" as="geometry" />
        </mxCell>
        <mxCell id="SJSmvKwEZ4cIt8mxZRy5-114" value="" style="shape=partialRectangle;top=0;left=0;bottom=0;fillColor=none;align=left;verticalAlign=top;spacingLeft=4;spacingRight=4;overflow=hidden;rotatable=0;points=[];portConstraint=eastwest;part=1;rounded=0;" vertex="1" connectable="0" parent="SJSmvKwEZ4cIt8mxZRy5-113">
          <mxGeometry width="30" height="26" as="geometry" />
        </mxCell>
        <mxCell id="SJSmvKwEZ4cIt8mxZRy5-110" value="" style="shape=partialRectangle;top=0;left=0;right=0;bottom=0;align=left;verticalAlign=top;fillColor=none;spacingLeft=34;spacingRight=4;overflow=hidden;rotatable=0;points=[[0,0.5],[1,0.5]];portConstraint=eastwest;dropTarget=0;rounded=0;" vertex="1" parent="SJSmvKwEZ4cIt8mxZRy5-101">
          <mxGeometry y="134" width="160" height="10" as="geometry" />
        </mxCell>
        <mxCell id="SJSmvKwEZ4cIt8mxZRy5-111" value="" style="shape=partialRectangle;top=0;left=0;bottom=0;fillColor=none;align=left;verticalAlign=top;spacingLeft=4;spacingRight=4;overflow=hidden;rotatable=0;points=[];portConstraint=eastwest;part=1;rounded=0;" vertex="1" connectable="0" parent="SJSmvKwEZ4cIt8mxZRy5-110">
          <mxGeometry width="30" height="10" as="geometry" />
        </mxCell>
        <mxCell id="SJSmvKwEZ4cIt8mxZRy5-115" value="Region" style="swimlane;fontStyle=0;childLayout=stackLayout;horizontal=1;startSize=26;fillColor=#f0f0f0;horizontalStack=0;resizeParent=1;resizeParentMax=0;resizeLast=0;collapsible=1;marginBottom=0;swimlaneFillColor=#FFD966;align=center;strokeWidth=1;fontSize=13;strokeColor=#000000;rounded=0;" vertex="1" parent="1">
          <mxGeometry x="85" y="66" width="165" height="92" as="geometry" />
        </mxCell>
        <mxCell id="SJSmvKwEZ4cIt8mxZRy5-116" value="RegionID" style="shape=partialRectangle;top=0;left=0;right=0;bottom=1;align=left;verticalAlign=middle;fillColor=none;spacingLeft=34;spacingRight=4;overflow=hidden;rotatable=0;points=[[0,0.5],[1,0.5]];portConstraint=eastwest;dropTarget=0;fontStyle=5;rounded=0;" vertex="1" parent="SJSmvKwEZ4cIt8mxZRy5-115">
          <mxGeometry y="26" width="165" height="30" as="geometry" />
        </mxCell>
        <mxCell id="SJSmvKwEZ4cIt8mxZRy5-117" value="PK" style="shape=partialRectangle;top=0;left=0;bottom=0;fillColor=none;align=left;verticalAlign=middle;spacingLeft=4;spacingRight=4;overflow=hidden;rotatable=0;points=[];portConstraint=eastwest;part=1;fontStyle=1;rounded=0;" vertex="1" connectable="0" parent="SJSmvKwEZ4cIt8mxZRy5-116">
          <mxGeometry width="30" height="30" as="geometry" />
        </mxCell>
        <mxCell id="SJSmvKwEZ4cIt8mxZRy5-118" value="region_name" style="shape=partialRectangle;top=0;left=0;right=0;bottom=0;align=left;verticalAlign=top;fillColor=none;spacingLeft=34;spacingRight=4;overflow=hidden;rotatable=0;points=[[0,0.5],[1,0.5]];portConstraint=eastwest;dropTarget=0;rounded=0;" vertex="1" parent="SJSmvKwEZ4cIt8mxZRy5-115">
          <mxGeometry y="56" width="165" height="26" as="geometry" />
        </mxCell>
        <mxCell id="SJSmvKwEZ4cIt8mxZRy5-119" value="" style="shape=partialRectangle;top=0;left=0;bottom=0;fillColor=none;align=left;verticalAlign=top;spacingLeft=4;spacingRight=4;overflow=hidden;rotatable=0;points=[];portConstraint=eastwest;part=1;rounded=0;" vertex="1" connectable="0" parent="SJSmvKwEZ4cIt8mxZRy5-118">
          <mxGeometry width="30" height="26" as="geometry" />
        </mxCell>
        <mxCell id="SJSmvKwEZ4cIt8mxZRy5-124" value="" style="shape=partialRectangle;top=0;left=0;right=0;bottom=0;align=left;verticalAlign=top;fillColor=none;spacingLeft=34;spacingRight=4;overflow=hidden;rotatable=0;points=[[0,0.5],[1,0.5]];portConstraint=eastwest;dropTarget=0;rounded=0;" vertex="1" parent="SJSmvKwEZ4cIt8mxZRy5-115">
          <mxGeometry y="82" width="165" height="10" as="geometry" />
        </mxCell>
        <mxCell id="SJSmvKwEZ4cIt8mxZRy5-125" value="" style="shape=partialRectangle;top=0;left=0;bottom=0;fillColor=none;align=left;verticalAlign=top;spacingLeft=4;spacingRight=4;overflow=hidden;rotatable=0;points=[];portConstraint=eastwest;part=1;rounded=0;" vertex="1" connectable="0" parent="SJSmvKwEZ4cIt8mxZRy5-124">
          <mxGeometry width="30" height="10" as="geometry" />
        </mxCell>
        <mxCell id="SJSmvKwEZ4cIt8mxZRy5-126" value="Province" style="swimlane;fontStyle=0;childLayout=stackLayout;horizontal=1;startSize=26;fillColor=#f0f0f0;horizontalStack=0;resizeParent=1;resizeParentMax=0;resizeLast=0;collapsible=1;marginBottom=0;swimlaneFillColor=#FFD966;align=center;strokeWidth=1;fontSize=13;strokeColor=#000000;rounded=0;" vertex="1" parent="1">
          <mxGeometry x="87.5" y="216" width="160" height="118" as="geometry" />
        </mxCell>
        <mxCell id="SJSmvKwEZ4cIt8mxZRy5-127" value="ProvinceID" style="shape=partialRectangle;top=0;left=0;right=0;bottom=1;align=left;verticalAlign=middle;fillColor=none;spacingLeft=34;spacingRight=4;overflow=hidden;rotatable=0;points=[[0,0.5],[1,0.5]];portConstraint=eastwest;dropTarget=0;fontStyle=5;rounded=0;" vertex="1" parent="SJSmvKwEZ4cIt8mxZRy5-126">
          <mxGeometry y="26" width="160" height="30" as="geometry" />
        </mxCell>
        <mxCell id="SJSmvKwEZ4cIt8mxZRy5-128" value="PK" style="shape=partialRectangle;top=0;left=0;bottom=0;fillColor=none;align=left;verticalAlign=middle;spacingLeft=4;spacingRight=4;overflow=hidden;rotatable=0;points=[];portConstraint=eastwest;part=1;fontStyle=1;rounded=0;" vertex="1" connectable="0" parent="SJSmvKwEZ4cIt8mxZRy5-127">
          <mxGeometry width="30" height="30" as="geometry" />
        </mxCell>
        <mxCell id="SJSmvKwEZ4cIt8mxZRy5-129" value="RegionID" style="shape=partialRectangle;top=0;left=0;right=0;bottom=0;align=left;verticalAlign=top;fillColor=none;spacingLeft=34;spacingRight=4;overflow=hidden;rotatable=0;points=[[0,0.5],[1,0.5]];portConstraint=eastwest;dropTarget=0;fontStyle=2;rounded=0;" vertex="1" parent="SJSmvKwEZ4cIt8mxZRy5-126">
          <mxGeometry y="56" width="160" height="26" as="geometry" />
        </mxCell>
        <mxCell id="SJSmvKwEZ4cIt8mxZRy5-130" value="FK" style="shape=partialRectangle;top=0;left=0;bottom=0;fillColor=none;align=left;verticalAlign=top;spacingLeft=4;spacingRight=4;overflow=hidden;rotatable=0;points=[];portConstraint=eastwest;part=1;rounded=0;" vertex="1" connectable="0" parent="SJSmvKwEZ4cIt8mxZRy5-129">
          <mxGeometry width="30" height="26" as="geometry" />
        </mxCell>
        <mxCell id="SJSmvKwEZ4cIt8mxZRy5-133" value="province_name" style="shape=partialRectangle;top=0;left=0;right=0;bottom=0;align=left;verticalAlign=top;fillColor=none;spacingLeft=34;spacingRight=4;overflow=hidden;rotatable=0;points=[[0,0.5],[1,0.5]];portConstraint=eastwest;dropTarget=0;fontStyle=0;rounded=0;" vertex="1" parent="SJSmvKwEZ4cIt8mxZRy5-126">
          <mxGeometry y="82" width="160" height="26" as="geometry" />
        </mxCell>
        <mxCell id="SJSmvKwEZ4cIt8mxZRy5-134" value="" style="shape=partialRectangle;top=0;left=0;bottom=0;fillColor=none;align=left;verticalAlign=top;spacingLeft=4;spacingRight=4;overflow=hidden;rotatable=0;points=[];portConstraint=eastwest;part=1;rounded=0;" vertex="1" connectable="0" parent="SJSmvKwEZ4cIt8mxZRy5-133">
          <mxGeometry width="30" height="26" as="geometry" />
        </mxCell>
        <mxCell id="SJSmvKwEZ4cIt8mxZRy5-131" value="" style="shape=partialRectangle;top=0;left=0;right=0;bottom=0;align=left;verticalAlign=top;fillColor=none;spacingLeft=34;spacingRight=4;overflow=hidden;rotatable=0;points=[[0,0.5],[1,0.5]];portConstraint=eastwest;dropTarget=0;rounded=0;" vertex="1" parent="SJSmvKwEZ4cIt8mxZRy5-126">
          <mxGeometry y="108" width="160" height="10" as="geometry" />
        </mxCell>
        <mxCell id="SJSmvKwEZ4cIt8mxZRy5-132" value="" style="shape=partialRectangle;top=0;left=0;bottom=0;fillColor=none;align=left;verticalAlign=top;spacingLeft=4;spacingRight=4;overflow=hidden;rotatable=0;points=[];portConstraint=eastwest;part=1;rounded=0;" vertex="1" connectable="0" parent="SJSmvKwEZ4cIt8mxZRy5-131">
          <mxGeometry width="30" height="10" as="geometry" />
        </mxCell>
        <mxCell id="SJSmvKwEZ4cIt8mxZRy5-135" value="City" style="swimlane;fontStyle=0;childLayout=stackLayout;horizontal=1;startSize=26;fillColor=#f0f0f0;horizontalStack=0;resizeParent=1;resizeParentMax=0;resizeLast=0;collapsible=1;marginBottom=0;swimlaneFillColor=#FFD966;align=center;strokeWidth=1;fontSize=13;strokeColor=#000000;rounded=0;" vertex="1" parent="1">
          <mxGeometry x="85" y="406" width="160" height="118" as="geometry" />
        </mxCell>
        <mxCell id="SJSmvKwEZ4cIt8mxZRy5-136" value="CityID" style="shape=partialRectangle;top=0;left=0;right=0;bottom=1;align=left;verticalAlign=middle;fillColor=none;spacingLeft=34;spacingRight=4;overflow=hidden;rotatable=0;points=[[0,0.5],[1,0.5]];portConstraint=eastwest;dropTarget=0;fontStyle=5;rounded=0;" vertex="1" parent="SJSmvKwEZ4cIt8mxZRy5-135">
          <mxGeometry y="26" width="160" height="30" as="geometry" />
        </mxCell>
        <mxCell id="SJSmvKwEZ4cIt8mxZRy5-137" value="PK" style="shape=partialRectangle;top=0;left=0;bottom=0;fillColor=none;align=left;verticalAlign=middle;spacingLeft=4;spacingRight=4;overflow=hidden;rotatable=0;points=[];portConstraint=eastwest;part=1;fontStyle=1;rounded=0;" vertex="1" connectable="0" parent="SJSmvKwEZ4cIt8mxZRy5-136">
          <mxGeometry width="30" height="30" as="geometry" />
        </mxCell>
        <mxCell id="SJSmvKwEZ4cIt8mxZRy5-138" value="ProvinceID" style="shape=partialRectangle;top=0;left=0;right=0;bottom=0;align=left;verticalAlign=top;fillColor=none;spacingLeft=34;spacingRight=4;overflow=hidden;rotatable=0;points=[[0,0.5],[1,0.5]];portConstraint=eastwest;dropTarget=0;fontStyle=2;rounded=0;" vertex="1" parent="SJSmvKwEZ4cIt8mxZRy5-135">
          <mxGeometry y="56" width="160" height="26" as="geometry" />
        </mxCell>
        <mxCell id="SJSmvKwEZ4cIt8mxZRy5-139" value="FK" style="shape=partialRectangle;top=0;left=0;bottom=0;fillColor=none;align=left;verticalAlign=top;spacingLeft=4;spacingRight=4;overflow=hidden;rotatable=0;points=[];portConstraint=eastwest;part=1;rounded=0;" vertex="1" connectable="0" parent="SJSmvKwEZ4cIt8mxZRy5-138">
          <mxGeometry width="30" height="26" as="geometry" />
        </mxCell>
        <mxCell id="SJSmvKwEZ4cIt8mxZRy5-140" value="city_name" style="shape=partialRectangle;top=0;left=0;right=0;bottom=0;align=left;verticalAlign=top;fillColor=none;spacingLeft=34;spacingRight=4;overflow=hidden;rotatable=0;points=[[0,0.5],[1,0.5]];portConstraint=eastwest;dropTarget=0;fontStyle=0;rounded=0;" vertex="1" parent="SJSmvKwEZ4cIt8mxZRy5-135">
          <mxGeometry y="82" width="160" height="26" as="geometry" />
        </mxCell>
        <mxCell id="SJSmvKwEZ4cIt8mxZRy5-141" value="" style="shape=partialRectangle;top=0;left=0;bottom=0;fillColor=none;align=left;verticalAlign=top;spacingLeft=4;spacingRight=4;overflow=hidden;rotatable=0;points=[];portConstraint=eastwest;part=1;rounded=0;" vertex="1" connectable="0" parent="SJSmvKwEZ4cIt8mxZRy5-140">
          <mxGeometry width="30" height="26" as="geometry" />
        </mxCell>
        <mxCell id="SJSmvKwEZ4cIt8mxZRy5-142" value="" style="shape=partialRectangle;top=0;left=0;right=0;bottom=0;align=left;verticalAlign=top;fillColor=none;spacingLeft=34;spacingRight=4;overflow=hidden;rotatable=0;points=[[0,0.5],[1,0.5]];portConstraint=eastwest;dropTarget=0;rounded=0;" vertex="1" parent="SJSmvKwEZ4cIt8mxZRy5-135">
          <mxGeometry y="108" width="160" height="10" as="geometry" />
        </mxCell>
        <mxCell id="SJSmvKwEZ4cIt8mxZRy5-143" value="" style="shape=partialRectangle;top=0;left=0;bottom=0;fillColor=none;align=left;verticalAlign=top;spacingLeft=4;spacingRight=4;overflow=hidden;rotatable=0;points=[];portConstraint=eastwest;part=1;rounded=0;" vertex="1" connectable="0" parent="SJSmvKwEZ4cIt8mxZRy5-142">
          <mxGeometry width="30" height="10" as="geometry" />
        </mxCell>
        <mxCell id="SJSmvKwEZ4cIt8mxZRy5-144" value="Barangay" style="swimlane;fontStyle=0;childLayout=stackLayout;horizontal=1;startSize=26;fillColor=#F0F0F0;horizontalStack=0;resizeParent=1;resizeParentMax=0;resizeLast=0;collapsible=1;marginBottom=0;swimlaneFillColor=#FFD966;align=center;strokeWidth=1;fontSize=13;strokeColor=#000000;rounded=0;" vertex="1" parent="1">
          <mxGeometry x="85" y="586" width="160" height="118" as="geometry" />
        </mxCell>
        <mxCell id="SJSmvKwEZ4cIt8mxZRy5-145" value="BarangayID" style="shape=partialRectangle;top=0;left=0;right=0;bottom=1;align=left;verticalAlign=middle;fillColor=#FFD966;spacingLeft=34;spacingRight=4;overflow=hidden;rotatable=0;points=[[0,0.5],[1,0.5]];portConstraint=eastwest;dropTarget=0;fontStyle=5;strokeColor=#000000;rounded=0;" vertex="1" parent="SJSmvKwEZ4cIt8mxZRy5-144">
          <mxGeometry y="26" width="160" height="30" as="geometry" />
        </mxCell>
        <mxCell id="SJSmvKwEZ4cIt8mxZRy5-146" value="PK" style="shape=partialRectangle;top=0;left=0;bottom=0;fillColor=none;align=left;verticalAlign=middle;spacingLeft=4;spacingRight=4;overflow=hidden;rotatable=0;points=[];portConstraint=eastwest;part=1;fontStyle=1;rounded=0;" vertex="1" connectable="0" parent="SJSmvKwEZ4cIt8mxZRy5-145">
          <mxGeometry width="30" height="30" as="geometry" />
        </mxCell>
        <mxCell id="SJSmvKwEZ4cIt8mxZRy5-147" value="CityID" style="shape=partialRectangle;top=0;left=0;right=0;bottom=0;align=left;verticalAlign=top;fillColor=none;spacingLeft=34;spacingRight=4;overflow=hidden;rotatable=0;points=[[0,0.5],[1,0.5]];portConstraint=eastwest;dropTarget=0;fontStyle=2;rounded=0;" vertex="1" parent="SJSmvKwEZ4cIt8mxZRy5-144">
          <mxGeometry y="56" width="160" height="26" as="geometry" />
        </mxCell>
        <mxCell id="SJSmvKwEZ4cIt8mxZRy5-148" value="FK" style="shape=partialRectangle;top=0;left=0;bottom=0;fillColor=none;align=left;verticalAlign=top;spacingLeft=4;spacingRight=4;overflow=hidden;rotatable=0;points=[];portConstraint=eastwest;part=1;rounded=0;" vertex="1" connectable="0" parent="SJSmvKwEZ4cIt8mxZRy5-147">
          <mxGeometry width="30" height="26" as="geometry" />
        </mxCell>
        <mxCell id="SJSmvKwEZ4cIt8mxZRy5-149" value="barangay_name" style="shape=partialRectangle;top=0;left=0;right=0;bottom=0;align=left;verticalAlign=top;fillColor=none;spacingLeft=34;spacingRight=4;overflow=hidden;rotatable=0;points=[[0,0.5],[1,0.5]];portConstraint=eastwest;dropTarget=0;fontStyle=0;rounded=0;" vertex="1" parent="SJSmvKwEZ4cIt8mxZRy5-144">
          <mxGeometry y="82" width="160" height="26" as="geometry" />
        </mxCell>
        <mxCell id="SJSmvKwEZ4cIt8mxZRy5-150" value="" style="shape=partialRectangle;top=0;left=0;bottom=0;fillColor=none;align=left;verticalAlign=top;spacingLeft=4;spacingRight=4;overflow=hidden;rotatable=0;points=[];portConstraint=eastwest;part=1;rounded=0;" vertex="1" connectable="0" parent="SJSmvKwEZ4cIt8mxZRy5-149">
          <mxGeometry width="30" height="26" as="geometry" />
        </mxCell>
        <mxCell id="SJSmvKwEZ4cIt8mxZRy5-151" value="" style="shape=partialRectangle;top=0;left=0;right=0;bottom=0;align=left;verticalAlign=top;fillColor=none;spacingLeft=34;spacingRight=4;overflow=hidden;rotatable=0;points=[[0,0.5],[1,0.5]];portConstraint=eastwest;dropTarget=0;rounded=0;" vertex="1" parent="SJSmvKwEZ4cIt8mxZRy5-144">
          <mxGeometry y="108" width="160" height="10" as="geometry" />
        </mxCell>
        <mxCell id="SJSmvKwEZ4cIt8mxZRy5-152" value="" style="shape=partialRectangle;top=0;left=0;bottom=0;fillColor=none;align=left;verticalAlign=top;spacingLeft=4;spacingRight=4;overflow=hidden;rotatable=0;points=[];portConstraint=eastwest;part=1;rounded=0;" vertex="1" connectable="0" parent="SJSmvKwEZ4cIt8mxZRy5-151">
          <mxGeometry width="30" height="10" as="geometry" />
        </mxCell>
        <mxCell id="SJSmvKwEZ4cIt8mxZRy5-154" value="Address" style="swimlane;fontStyle=0;childLayout=stackLayout;horizontal=1;startSize=26;fillColor=#F0F0F0;horizontalStack=0;resizeParent=1;resizeParentMax=0;resizeLast=0;collapsible=1;marginBottom=0;swimlaneFillColor=#FFD966;align=center;strokeWidth=1;fontSize=13;strokeColor=#000000;rounded=0;" vertex="1" parent="1">
          <mxGeometry x="480" y="226" width="160" height="222" as="geometry" />
        </mxCell>
        <mxCell id="SJSmvKwEZ4cIt8mxZRy5-155" value="AddressID" style="shape=partialRectangle;top=0;left=0;right=0;bottom=1;align=left;verticalAlign=middle;fillColor=none;spacingLeft=34;spacingRight=4;overflow=hidden;rotatable=0;points=[[0,0.5],[1,0.5]];portConstraint=eastwest;dropTarget=0;fontStyle=5;rounded=0;" vertex="1" parent="SJSmvKwEZ4cIt8mxZRy5-154">
          <mxGeometry y="26" width="160" height="30" as="geometry" />
        </mxCell>
        <mxCell id="SJSmvKwEZ4cIt8mxZRy5-156" value="PK" style="shape=partialRectangle;top=0;left=0;bottom=0;fillColor=none;align=left;verticalAlign=middle;spacingLeft=4;spacingRight=4;overflow=hidden;rotatable=0;points=[];portConstraint=eastwest;part=1;fontStyle=1;rounded=0;" vertex="1" connectable="0" parent="SJSmvKwEZ4cIt8mxZRy5-155">
          <mxGeometry width="30" height="30" as="geometry" />
        </mxCell>
        <mxCell id="SJSmvKwEZ4cIt8mxZRy5-157" value="RegionID" style="shape=partialRectangle;top=0;left=0;right=0;bottom=0;align=left;verticalAlign=top;fillColor=none;spacingLeft=34;spacingRight=4;overflow=hidden;rotatable=0;points=[[0,0.5],[1,0.5]];portConstraint=eastwest;dropTarget=0;fontStyle=2;rounded=0;" vertex="1" parent="SJSmvKwEZ4cIt8mxZRy5-154">
          <mxGeometry y="56" width="160" height="26" as="geometry" />
        </mxCell>
        <mxCell id="SJSmvKwEZ4cIt8mxZRy5-158" value="FK" style="shape=partialRectangle;top=0;left=0;bottom=0;fillColor=none;align=left;verticalAlign=top;spacingLeft=4;spacingRight=4;overflow=hidden;rotatable=0;points=[];portConstraint=eastwest;part=1;rounded=0;" vertex="1" connectable="0" parent="SJSmvKwEZ4cIt8mxZRy5-157">
          <mxGeometry width="30" height="26" as="geometry" />
        </mxCell>
        <mxCell id="SJSmvKwEZ4cIt8mxZRy5-159" value="ProvinceID" style="shape=partialRectangle;top=0;left=0;right=0;bottom=0;align=left;verticalAlign=top;fillColor=none;spacingLeft=34;spacingRight=4;overflow=hidden;rotatable=0;points=[[0,0.5],[1,0.5]];portConstraint=eastwest;dropTarget=0;fontStyle=2;rounded=0;" vertex="1" parent="SJSmvKwEZ4cIt8mxZRy5-154">
          <mxGeometry y="82" width="160" height="26" as="geometry" />
        </mxCell>
        <mxCell id="SJSmvKwEZ4cIt8mxZRy5-160" value="FK" style="shape=partialRectangle;top=0;left=0;bottom=0;fillColor=none;align=left;verticalAlign=top;spacingLeft=4;spacingRight=4;overflow=hidden;rotatable=0;points=[];portConstraint=eastwest;part=1;rounded=0;" vertex="1" connectable="0" parent="SJSmvKwEZ4cIt8mxZRy5-159">
          <mxGeometry width="30" height="26" as="geometry" />
        </mxCell>
        <mxCell id="SJSmvKwEZ4cIt8mxZRy5-166" value="CityID" style="shape=partialRectangle;top=0;left=0;right=0;bottom=0;align=left;verticalAlign=top;fillColor=none;spacingLeft=34;spacingRight=4;overflow=hidden;rotatable=0;points=[[0,0.5],[1,0.5]];portConstraint=eastwest;dropTarget=0;fontStyle=2;shadow=0;rounded=0;" vertex="1" parent="SJSmvKwEZ4cIt8mxZRy5-154">
          <mxGeometry y="108" width="160" height="26" as="geometry" />
        </mxCell>
        <mxCell id="SJSmvKwEZ4cIt8mxZRy5-167" value="FK" style="shape=partialRectangle;top=0;left=0;bottom=0;fillColor=none;align=left;verticalAlign=top;spacingLeft=4;spacingRight=4;overflow=hidden;rotatable=0;points=[];portConstraint=eastwest;part=1;rounded=0;" vertex="1" connectable="0" parent="SJSmvKwEZ4cIt8mxZRy5-166">
          <mxGeometry width="30" height="26" as="geometry" />
        </mxCell>
        <mxCell id="SJSmvKwEZ4cIt8mxZRy5-168" value="BarangayID" style="shape=partialRectangle;top=0;left=0;right=0;bottom=0;align=left;verticalAlign=top;fillColor=none;spacingLeft=34;spacingRight=4;overflow=hidden;rotatable=0;points=[[0,0.5],[1,0.5]];portConstraint=eastwest;dropTarget=0;fontStyle=2;rounded=0;" vertex="1" parent="SJSmvKwEZ4cIt8mxZRy5-154">
          <mxGeometry y="134" width="160" height="26" as="geometry" />
        </mxCell>
        <mxCell id="SJSmvKwEZ4cIt8mxZRy5-169" value="FK" style="shape=partialRectangle;top=0;left=0;bottom=0;fillColor=none;align=left;verticalAlign=top;spacingLeft=4;spacingRight=4;overflow=hidden;rotatable=0;points=[];portConstraint=eastwest;part=1;rounded=0;" vertex="1" connectable="0" parent="SJSmvKwEZ4cIt8mxZRy5-168">
          <mxGeometry width="30" height="26" as="geometry" />
        </mxCell>
        <mxCell id="SJSmvKwEZ4cIt8mxZRy5-161" value="street_address" style="shape=partialRectangle;top=0;left=0;right=0;bottom=0;align=left;verticalAlign=top;fillColor=none;spacingLeft=34;spacingRight=4;overflow=hidden;rotatable=0;points=[[0,0.5],[1,0.5]];portConstraint=eastwest;dropTarget=0;rounded=0;" vertex="1" parent="SJSmvKwEZ4cIt8mxZRy5-154">
          <mxGeometry y="160" width="160" height="26" as="geometry" />
        </mxCell>
        <mxCell id="SJSmvKwEZ4cIt8mxZRy5-162" value="" style="shape=partialRectangle;top=0;left=0;bottom=0;fillColor=none;align=left;verticalAlign=top;spacingLeft=4;spacingRight=4;overflow=hidden;rotatable=0;points=[];portConstraint=eastwest;part=1;rounded=0;" vertex="1" connectable="0" parent="SJSmvKwEZ4cIt8mxZRy5-161">
          <mxGeometry width="30" height="26" as="geometry" />
        </mxCell>
        <mxCell id="SJSmvKwEZ4cIt8mxZRy5-170" value="created_at" style="shape=partialRectangle;top=0;left=0;right=0;bottom=0;align=left;verticalAlign=top;fillColor=none;spacingLeft=34;spacingRight=4;overflow=hidden;rotatable=0;points=[[0,0.5],[1,0.5]];portConstraint=eastwest;dropTarget=0;rounded=0;" vertex="1" parent="SJSmvKwEZ4cIt8mxZRy5-154">
          <mxGeometry y="186" width="160" height="26" as="geometry" />
        </mxCell>
        <mxCell id="SJSmvKwEZ4cIt8mxZRy5-171" value="" style="shape=partialRectangle;top=0;left=0;bottom=0;fillColor=none;align=left;verticalAlign=top;spacingLeft=4;spacingRight=4;overflow=hidden;rotatable=0;points=[];portConstraint=eastwest;part=1;rounded=0;" vertex="1" connectable="0" parent="SJSmvKwEZ4cIt8mxZRy5-170">
          <mxGeometry width="30" height="26" as="geometry" />
        </mxCell>
        <mxCell id="SJSmvKwEZ4cIt8mxZRy5-163" value="" style="shape=partialRectangle;top=0;left=0;right=0;bottom=0;align=left;verticalAlign=top;fillColor=none;spacingLeft=34;spacingRight=4;overflow=hidden;rotatable=0;points=[[0,0.5],[1,0.5]];portConstraint=eastwest;dropTarget=0;rounded=0;" vertex="1" parent="SJSmvKwEZ4cIt8mxZRy5-154">
          <mxGeometry y="212" width="160" height="10" as="geometry" />
        </mxCell>
        <mxCell id="SJSmvKwEZ4cIt8mxZRy5-164" value="" style="shape=partialRectangle;top=0;left=0;bottom=0;fillColor=none;align=left;verticalAlign=top;spacingLeft=4;spacingRight=4;overflow=hidden;rotatable=0;points=[];portConstraint=eastwest;part=1;rounded=0;" vertex="1" connectable="0" parent="SJSmvKwEZ4cIt8mxZRy5-163">
          <mxGeometry width="30" height="10" as="geometry" />
        </mxCell>
        <mxCell id="SJSmvKwEZ4cIt8mxZRy5-172" value="" style="edgeStyle=entityRelationEdgeStyle;fontSize=12;html=1;endArrow=ERzeroToMany;startArrow=ERoneToMany;rounded=0;endFill=0;" edge="1" parent="1" source="SJSmvKwEZ4cIt8mxZRy5-155" target="SJSmvKwEZ4cIt8mxZRy5-102">
          <mxGeometry width="100" height="100" relative="1" as="geometry">
            <mxPoint x="640" y="296" as="sourcePoint" />
            <mxPoint x="740" y="196" as="targetPoint" />
          </mxGeometry>
        </mxCell>
        <mxCell id="SJSmvKwEZ4cIt8mxZRy5-200" style="edgeStyle=orthogonalEdgeStyle;rounded=0;orthogonalLoop=1;jettySize=auto;html=1;endArrow=none;endFill=0;dashed=1;" edge="1" parent="1" source="SJSmvKwEZ4cIt8mxZRy5-173">
          <mxGeometry relative="1" as="geometry">
            <mxPoint x="750" y="266" as="targetPoint" />
          </mxGeometry>
        </mxCell>
        <mxCell id="SJSmvKwEZ4cIt8mxZRy5-173" value="UserAddress" style="swimlane;fontStyle=0;childLayout=stackLayout;horizontal=1;startSize=26;fillColor=#F0F0F0;horizontalStack=0;resizeParent=1;resizeParentMax=0;resizeLast=0;collapsible=1;marginBottom=0;swimlaneFillColor=#FFD966;align=center;strokeWidth=1;fontSize=13;strokeColor=#000000;rounded=0;" vertex="1" parent="1">
          <mxGeometry x="670" y="40" width="160" height="144" as="geometry" />
        </mxCell>
        <mxCell id="SJSmvKwEZ4cIt8mxZRy5-174" value="UserAddress" style="shape=partialRectangle;top=0;left=0;right=0;bottom=1;align=left;verticalAlign=middle;fillColor=none;spacingLeft=34;spacingRight=4;overflow=hidden;rotatable=0;points=[[0,0.5],[1,0.5]];portConstraint=eastwest;dropTarget=0;fontStyle=5;rounded=0;" vertex="1" parent="SJSmvKwEZ4cIt8mxZRy5-173">
          <mxGeometry y="26" width="160" height="30" as="geometry" />
        </mxCell>
        <mxCell id="SJSmvKwEZ4cIt8mxZRy5-175" value="PK    " style="shape=partialRectangle;top=0;left=0;bottom=0;fillColor=none;align=left;verticalAlign=middle;spacingLeft=4;spacingRight=4;overflow=hidden;rotatable=0;points=[];portConstraint=eastwest;part=1;fontStyle=1;rounded=0;" vertex="1" connectable="0" parent="SJSmvKwEZ4cIt8mxZRy5-174">
          <mxGeometry width="30" height="30" as="geometry" />
        </mxCell>
        <mxCell id="SJSmvKwEZ4cIt8mxZRy5-176" value="UserID" style="shape=partialRectangle;top=0;left=0;right=0;bottom=0;align=left;verticalAlign=top;fillColor=none;spacingLeft=34;spacingRight=4;overflow=hidden;rotatable=0;points=[[0,0.5],[1,0.5]];portConstraint=eastwest;dropTarget=0;fontStyle=2;rounded=0;" vertex="1" parent="SJSmvKwEZ4cIt8mxZRy5-173">
          <mxGeometry y="56" width="160" height="26" as="geometry" />
        </mxCell>
        <mxCell id="SJSmvKwEZ4cIt8mxZRy5-177" value="FK" style="shape=partialRectangle;top=0;left=0;bottom=0;fillColor=none;align=left;verticalAlign=top;spacingLeft=4;spacingRight=4;overflow=hidden;rotatable=0;points=[];portConstraint=eastwest;part=1;rounded=0;" vertex="1" connectable="0" parent="SJSmvKwEZ4cIt8mxZRy5-176">
          <mxGeometry width="30" height="26" as="geometry" />
        </mxCell>
        <mxCell id="SJSmvKwEZ4cIt8mxZRy5-178" value="AddressID" style="shape=partialRectangle;top=0;left=0;right=0;bottom=0;align=left;verticalAlign=top;fillColor=none;spacingLeft=34;spacingRight=4;overflow=hidden;rotatable=0;points=[[0,0.5],[1,0.5]];portConstraint=eastwest;dropTarget=0;fontStyle=2;rounded=0;" vertex="1" parent="SJSmvKwEZ4cIt8mxZRy5-173">
          <mxGeometry y="82" width="160" height="26" as="geometry" />
        </mxCell>
        <mxCell id="SJSmvKwEZ4cIt8mxZRy5-179" value="FK" style="shape=partialRectangle;top=0;left=0;bottom=0;fillColor=none;align=left;verticalAlign=top;spacingLeft=4;spacingRight=4;overflow=hidden;rotatable=0;points=[];portConstraint=eastwest;part=1;rounded=0;" vertex="1" connectable="0" parent="SJSmvKwEZ4cIt8mxZRy5-178">
          <mxGeometry width="30" height="26" as="geometry" />
        </mxCell>
        <mxCell id="SJSmvKwEZ4cIt8mxZRy5-198" value="isDefault&#xa;" style="shape=partialRectangle;top=0;left=0;right=0;bottom=0;align=left;verticalAlign=top;fillColor=none;spacingLeft=34;spacingRight=4;overflow=hidden;rotatable=0;points=[[0,0.5],[1,0.5]];portConstraint=eastwest;dropTarget=0;fontStyle=0;rounded=0;" vertex="1" parent="SJSmvKwEZ4cIt8mxZRy5-173">
          <mxGeometry y="108" width="160" height="26" as="geometry" />
        </mxCell>
        <mxCell id="SJSmvKwEZ4cIt8mxZRy5-199" value="" style="shape=partialRectangle;top=0;left=0;bottom=0;fillColor=none;align=left;verticalAlign=top;spacingLeft=4;spacingRight=4;overflow=hidden;rotatable=0;points=[];portConstraint=eastwest;part=1;rounded=0;" vertex="1" connectable="0" parent="SJSmvKwEZ4cIt8mxZRy5-198">
          <mxGeometry width="30" height="26" as="geometry" />
        </mxCell>
        <mxCell id="SJSmvKwEZ4cIt8mxZRy5-180" value="" style="shape=partialRectangle;top=0;left=0;right=0;bottom=0;align=left;verticalAlign=top;fillColor=none;spacingLeft=34;spacingRight=4;overflow=hidden;rotatable=0;points=[[0,0.5],[1,0.5]];portConstraint=eastwest;dropTarget=0;rounded=0;" vertex="1" parent="SJSmvKwEZ4cIt8mxZRy5-173">
          <mxGeometry y="134" width="160" height="10" as="geometry" />
        </mxCell>
        <mxCell id="SJSmvKwEZ4cIt8mxZRy5-181" value="" style="shape=partialRectangle;top=0;left=0;bottom=0;fillColor=none;align=left;verticalAlign=top;spacingLeft=4;spacingRight=4;overflow=hidden;rotatable=0;points=[];portConstraint=eastwest;part=1;rounded=0;" vertex="1" connectable="0" parent="SJSmvKwEZ4cIt8mxZRy5-180">
          <mxGeometry width="30" height="10" as="geometry" />
        </mxCell>
        <mxCell id="SJSmvKwEZ4cIt8mxZRy5-185" value="" style="fontSize=12;html=1;endArrow=ERoneToMany;startArrow=ERmandOne;rounded=0;strokeColor=#000000;entryX=0.5;entryY=0;entryDx=0;entryDy=0;" edge="1" parent="1" source="SJSmvKwEZ4cIt8mxZRy5-115" target="SJSmvKwEZ4cIt8mxZRy5-126">
          <mxGeometry width="100" height="100" relative="1" as="geometry">
            <mxPoint x="168" y="36" as="sourcePoint" />
            <mxPoint x="590" y="316" as="targetPoint" />
          </mxGeometry>
        </mxCell>
        <mxCell id="SJSmvKwEZ4cIt8mxZRy5-192" value="" style="edgeStyle=entityRelationEdgeStyle;fontSize=12;html=1;endArrow=ERoneToMany;startArrow=ERmandOne;rounded=0;" edge="1" parent="1" source="SJSmvKwEZ4cIt8mxZRy5-116" target="SJSmvKwEZ4cIt8mxZRy5-157">
          <mxGeometry width="100" height="100" relative="1" as="geometry">
            <mxPoint x="400" y="356" as="sourcePoint" />
            <mxPoint x="500" y="256" as="targetPoint" />
          </mxGeometry>
        </mxCell>
        <mxCell id="SJSmvKwEZ4cIt8mxZRy5-193" value="" style="edgeStyle=entityRelationEdgeStyle;fontSize=12;html=1;endArrow=ERoneToMany;startArrow=ERmandOne;rounded=0;" edge="1" parent="1" source="SJSmvKwEZ4cIt8mxZRy5-127" target="SJSmvKwEZ4cIt8mxZRy5-159">
          <mxGeometry width="100" height="100" relative="1" as="geometry">
            <mxPoint x="270" y="106" as="sourcePoint" />
            <mxPoint x="410" y="95" as="targetPoint" />
          </mxGeometry>
        </mxCell>
        <mxCell id="SJSmvKwEZ4cIt8mxZRy5-194" value="" style="edgeStyle=entityRelationEdgeStyle;fontSize=12;html=1;endArrow=ERoneToMany;startArrow=ERmandOne;rounded=0;" edge="1" parent="1" source="SJSmvKwEZ4cIt8mxZRy5-136" target="SJSmvKwEZ4cIt8mxZRy5-166">
          <mxGeometry width="100" height="100" relative="1" as="geometry">
            <mxPoint x="255" y="297" as="sourcePoint" />
            <mxPoint x="410" y="121" as="targetPoint" />
          </mxGeometry>
        </mxCell>
        <mxCell id="SJSmvKwEZ4cIt8mxZRy5-195" value="" style="edgeStyle=entityRelationEdgeStyle;fontSize=12;html=1;endArrow=ERoneToMany;startArrow=ERmandOne;rounded=0;" edge="1" parent="1" source="SJSmvKwEZ4cIt8mxZRy5-145" target="SJSmvKwEZ4cIt8mxZRy5-168">
          <mxGeometry width="100" height="100" relative="1" as="geometry">
            <mxPoint x="255" y="457" as="sourcePoint" />
            <mxPoint x="410" y="147" as="targetPoint" />
          </mxGeometry>
        </mxCell>
        <mxCell id="SJSmvKwEZ4cIt8mxZRy5-196" value="" style="fontSize=12;html=1;endArrow=ERoneToMany;startArrow=ERmandOne;rounded=0;strokeColor=#000000;" edge="1" parent="1" source="SJSmvKwEZ4cIt8mxZRy5-126" target="SJSmvKwEZ4cIt8mxZRy5-135">
          <mxGeometry width="100" height="100" relative="1" as="geometry">
            <mxPoint x="200" y="356" as="sourcePoint" />
            <mxPoint x="200" y="414" as="targetPoint" />
          </mxGeometry>
        </mxCell>
        <mxCell id="SJSmvKwEZ4cIt8mxZRy5-197" value="" style="fontSize=12;html=1;endArrow=ERoneToMany;startArrow=ERmandOne;rounded=0;strokeColor=#000000;entryX=0.5;entryY=0;entryDx=0;entryDy=0;" edge="1" parent="1" source="SJSmvKwEZ4cIt8mxZRy5-135" target="SJSmvKwEZ4cIt8mxZRy5-144">
          <mxGeometry width="100" height="100" relative="1" as="geometry">
            <mxPoint x="530" y="486" as="sourcePoint" />
            <mxPoint x="290" y="758.1052631578948" as="targetPoint" />
            <Array as="points" />
          </mxGeometry>
        </mxCell>
        <mxCell id="SJSmvKwEZ4cIt8mxZRy5-310" value="Brand" style="swimlane;fontStyle=0;childLayout=stackLayout;horizontal=1;startSize=26;fillColor=#F0F0F0;horizontalStack=0;resizeParent=1;resizeParentMax=0;resizeLast=0;collapsible=1;marginBottom=0;swimlaneFillColor=#F8CECC;align=center;strokeWidth=1;fontSize=13;strokeColor=#000000;rounded=0;" vertex="1" parent="1">
          <mxGeometry x="90" y="791" width="160" height="92" as="geometry" />
        </mxCell>
        <mxCell id="SJSmvKwEZ4cIt8mxZRy5-311" value="BrandID" style="shape=partialRectangle;top=0;left=0;right=0;bottom=1;align=left;verticalAlign=middle;fillColor=none;spacingLeft=34;spacingRight=4;overflow=hidden;rotatable=0;points=[[0,0.5],[1,0.5]];portConstraint=eastwest;dropTarget=0;fontStyle=5;strokeColor=#000000;rounded=0;" vertex="1" parent="SJSmvKwEZ4cIt8mxZRy5-310">
          <mxGeometry y="26" width="160" height="30" as="geometry" />
        </mxCell>
        <mxCell id="SJSmvKwEZ4cIt8mxZRy5-312" value="PK" style="shape=partialRectangle;top=0;left=0;bottom=0;fillColor=none;align=left;verticalAlign=middle;spacingLeft=4;spacingRight=4;overflow=hidden;rotatable=0;points=[];portConstraint=eastwest;part=1;fontStyle=1;rounded=0;" vertex="1" connectable="0" parent="SJSmvKwEZ4cIt8mxZRy5-311">
          <mxGeometry width="30" height="30" as="geometry" />
        </mxCell>
        <mxCell id="SJSmvKwEZ4cIt8mxZRy5-313" value="make" style="shape=partialRectangle;top=0;left=0;right=0;bottom=0;align=left;verticalAlign=top;fillColor=none;spacingLeft=34;spacingRight=4;overflow=hidden;rotatable=0;points=[[0,0.5],[1,0.5]];portConstraint=eastwest;dropTarget=0;fontStyle=0;rounded=0;" vertex="1" parent="SJSmvKwEZ4cIt8mxZRy5-310">
          <mxGeometry y="56" width="160" height="26" as="geometry" />
        </mxCell>
        <mxCell id="SJSmvKwEZ4cIt8mxZRy5-314" value="" style="shape=partialRectangle;top=0;left=0;bottom=0;fillColor=none;align=left;verticalAlign=top;spacingLeft=4;spacingRight=4;overflow=hidden;rotatable=0;points=[];portConstraint=eastwest;part=1;rounded=0;" vertex="1" connectable="0" parent="SJSmvKwEZ4cIt8mxZRy5-313">
          <mxGeometry width="30" height="26" as="geometry" />
        </mxCell>
        <mxCell id="SJSmvKwEZ4cIt8mxZRy5-317" value="" style="shape=partialRectangle;top=0;left=0;right=0;bottom=0;align=left;verticalAlign=top;fillColor=none;spacingLeft=34;spacingRight=4;overflow=hidden;rotatable=0;points=[[0,0.5],[1,0.5]];portConstraint=eastwest;dropTarget=0;rounded=0;" vertex="1" parent="SJSmvKwEZ4cIt8mxZRy5-310">
          <mxGeometry y="82" width="160" height="10" as="geometry" />
        </mxCell>
        <mxCell id="SJSmvKwEZ4cIt8mxZRy5-318" value="" style="shape=partialRectangle;top=0;left=0;bottom=0;fillColor=none;align=left;verticalAlign=top;spacingLeft=4;spacingRight=4;overflow=hidden;rotatable=0;points=[];portConstraint=eastwest;part=1;rounded=0;" vertex="1" connectable="0" parent="SJSmvKwEZ4cIt8mxZRy5-317">
          <mxGeometry width="30" height="10" as="geometry" />
        </mxCell>
        <mxCell id="SJSmvKwEZ4cIt8mxZRy5-319" value="Model" style="swimlane;fontStyle=0;childLayout=stackLayout;horizontal=1;startSize=26;fillColor=#F0F0F0;horizontalStack=0;resizeParent=1;resizeParentMax=0;resizeLast=0;collapsible=1;marginBottom=0;swimlaneFillColor=#F8CECC;align=center;strokeWidth=1;fontSize=13;strokeColor=#000000;rounded=0;" vertex="1" parent="1">
          <mxGeometry x="90" y="991" width="160" height="92" as="geometry" />
        </mxCell>
        <mxCell id="SJSmvKwEZ4cIt8mxZRy5-320" value="ModelID" style="shape=partialRectangle;top=0;left=0;right=0;bottom=1;align=left;verticalAlign=middle;fillColor=none;spacingLeft=34;spacingRight=4;overflow=hidden;rotatable=0;points=[[0,0.5],[1,0.5]];portConstraint=eastwest;dropTarget=0;fontStyle=5;strokeColor=#000000;rounded=0;" vertex="1" parent="SJSmvKwEZ4cIt8mxZRy5-319">
          <mxGeometry y="26" width="160" height="30" as="geometry" />
        </mxCell>
        <mxCell id="SJSmvKwEZ4cIt8mxZRy5-321" value="PK" style="shape=partialRectangle;top=0;left=0;bottom=0;fillColor=none;align=left;verticalAlign=middle;spacingLeft=4;spacingRight=4;overflow=hidden;rotatable=0;points=[];portConstraint=eastwest;part=1;fontStyle=1;rounded=0;" vertex="1" connectable="0" parent="SJSmvKwEZ4cIt8mxZRy5-320">
          <mxGeometry width="30" height="30" as="geometry" />
        </mxCell>
        <mxCell id="SJSmvKwEZ4cIt8mxZRy5-322" value="BrandID" style="shape=partialRectangle;top=0;left=0;right=0;bottom=0;align=left;verticalAlign=top;fillColor=none;spacingLeft=34;spacingRight=4;overflow=hidden;rotatable=0;points=[[0,0.5],[1,0.5]];portConstraint=eastwest;dropTarget=0;fontStyle=2;rounded=0;" vertex="1" parent="SJSmvKwEZ4cIt8mxZRy5-319">
          <mxGeometry y="56" width="160" height="26" as="geometry" />
        </mxCell>
        <mxCell id="SJSmvKwEZ4cIt8mxZRy5-323" value="FK" style="shape=partialRectangle;top=0;left=0;bottom=0;fillColor=none;align=left;verticalAlign=top;spacingLeft=4;spacingRight=4;overflow=hidden;rotatable=0;points=[];portConstraint=eastwest;part=1;rounded=0;" vertex="1" connectable="0" parent="SJSmvKwEZ4cIt8mxZRy5-322">
          <mxGeometry width="30" height="26" as="geometry" />
        </mxCell>
        <mxCell id="SJSmvKwEZ4cIt8mxZRy5-324" value="" style="shape=partialRectangle;top=0;left=0;right=0;bottom=0;align=left;verticalAlign=top;fillColor=none;spacingLeft=34;spacingRight=4;overflow=hidden;rotatable=0;points=[[0,0.5],[1,0.5]];portConstraint=eastwest;dropTarget=0;rounded=0;" vertex="1" parent="SJSmvKwEZ4cIt8mxZRy5-319">
          <mxGeometry y="82" width="160" height="10" as="geometry" />
        </mxCell>
        <mxCell id="SJSmvKwEZ4cIt8mxZRy5-325" value="" style="shape=partialRectangle;top=0;left=0;bottom=0;fillColor=none;align=left;verticalAlign=top;spacingLeft=4;spacingRight=4;overflow=hidden;rotatable=0;points=[];portConstraint=eastwest;part=1;rounded=0;" vertex="1" connectable="0" parent="SJSmvKwEZ4cIt8mxZRy5-324">
          <mxGeometry width="30" height="10" as="geometry" />
        </mxCell>
        <mxCell id="SJSmvKwEZ4cIt8mxZRy5-326" value="Vehicle" style="swimlane;fontStyle=0;childLayout=stackLayout;horizontal=1;startSize=26;fillColor=#F0F0F0;horizontalStack=0;resizeParent=1;resizeParentMax=0;resizeLast=0;collapsible=1;marginBottom=0;swimlaneFillColor=#F8CECC;align=center;strokeWidth=1;fontSize=13;strokeColor=#000000;rounded=0;" vertex="1" parent="1">
          <mxGeometry x="480" y="890" width="160" height="248" as="geometry" />
        </mxCell>
        <mxCell id="SJSmvKwEZ4cIt8mxZRy5-327" value="VechicleID" style="shape=partialRectangle;top=0;left=0;right=0;bottom=1;align=left;verticalAlign=middle;fillColor=none;spacingLeft=34;spacingRight=4;overflow=hidden;rotatable=0;points=[[0,0.5],[1,0.5]];portConstraint=eastwest;dropTarget=0;fontStyle=5;strokeColor=#000000;rounded=0;" vertex="1" parent="SJSmvKwEZ4cIt8mxZRy5-326">
          <mxGeometry y="26" width="160" height="30" as="geometry" />
        </mxCell>
        <mxCell id="SJSmvKwEZ4cIt8mxZRy5-328" value="PK" style="shape=partialRectangle;top=0;left=0;bottom=0;fillColor=none;align=left;verticalAlign=middle;spacingLeft=4;spacingRight=4;overflow=hidden;rotatable=0;points=[];portConstraint=eastwest;part=1;fontStyle=1;rounded=0;" vertex="1" connectable="0" parent="SJSmvKwEZ4cIt8mxZRy5-327">
          <mxGeometry width="30" height="30" as="geometry" />
        </mxCell>
        <mxCell id="SJSmvKwEZ4cIt8mxZRy5-358" value="UserID" style="shape=partialRectangle;top=0;left=0;right=0;bottom=0;align=left;verticalAlign=top;fillColor=none;spacingLeft=34;spacingRight=4;overflow=hidden;rotatable=0;points=[[0,0.5],[1,0.5]];portConstraint=eastwest;dropTarget=0;fontStyle=2;rounded=0;" vertex="1" parent="SJSmvKwEZ4cIt8mxZRy5-326">
          <mxGeometry y="56" width="160" height="26" as="geometry" />
        </mxCell>
        <mxCell id="SJSmvKwEZ4cIt8mxZRy5-359" value="FK" style="shape=partialRectangle;top=0;left=0;bottom=0;fillColor=none;align=left;verticalAlign=top;spacingLeft=4;spacingRight=4;overflow=hidden;rotatable=0;points=[];portConstraint=eastwest;part=1;rounded=0;" vertex="1" connectable="0" parent="SJSmvKwEZ4cIt8mxZRy5-358">
          <mxGeometry width="30" height="26" as="geometry" />
        </mxCell>
        <mxCell id="SJSmvKwEZ4cIt8mxZRy5-329" value="BrandID" style="shape=partialRectangle;top=0;left=0;right=0;bottom=0;align=left;verticalAlign=top;fillColor=none;spacingLeft=34;spacingRight=4;overflow=hidden;rotatable=0;points=[[0,0.5],[1,0.5]];portConstraint=eastwest;dropTarget=0;fontStyle=2;rounded=0;" vertex="1" parent="SJSmvKwEZ4cIt8mxZRy5-326">
          <mxGeometry y="82" width="160" height="26" as="geometry" />
        </mxCell>
        <mxCell id="SJSmvKwEZ4cIt8mxZRy5-330" value="FK" style="shape=partialRectangle;top=0;left=0;bottom=0;fillColor=none;align=left;verticalAlign=top;spacingLeft=4;spacingRight=4;overflow=hidden;rotatable=0;points=[];portConstraint=eastwest;part=1;rounded=0;" vertex="1" connectable="0" parent="SJSmvKwEZ4cIt8mxZRy5-329">
          <mxGeometry width="30" height="26" as="geometry" />
        </mxCell>
        <mxCell id="SJSmvKwEZ4cIt8mxZRy5-333" value="ModelID" style="shape=partialRectangle;top=0;left=0;right=0;bottom=0;align=left;verticalAlign=top;fillColor=none;spacingLeft=34;spacingRight=4;overflow=hidden;rotatable=0;points=[[0,0.5],[1,0.5]];portConstraint=eastwest;dropTarget=0;fontStyle=2;rounded=0;" vertex="1" parent="SJSmvKwEZ4cIt8mxZRy5-326">
          <mxGeometry y="108" width="160" height="26" as="geometry" />
        </mxCell>
        <mxCell id="SJSmvKwEZ4cIt8mxZRy5-334" value="FK" style="shape=partialRectangle;top=0;left=0;bottom=0;fillColor=none;align=left;verticalAlign=top;spacingLeft=4;spacingRight=4;overflow=hidden;rotatable=0;points=[];portConstraint=eastwest;part=1;rounded=0;" vertex="1" connectable="0" parent="SJSmvKwEZ4cIt8mxZRy5-333">
          <mxGeometry width="30" height="26" as="geometry" />
        </mxCell>
        <mxCell id="SJSmvKwEZ4cIt8mxZRy5-337" value="FuelTypeID" style="shape=partialRectangle;top=0;left=0;right=0;bottom=0;align=left;verticalAlign=top;fillColor=none;spacingLeft=34;spacingRight=4;overflow=hidden;rotatable=0;points=[[0,0.5],[1,0.5]];portConstraint=eastwest;dropTarget=0;fontStyle=2;rounded=0;" vertex="1" parent="SJSmvKwEZ4cIt8mxZRy5-326">
          <mxGeometry y="134" width="160" height="26" as="geometry" />
        </mxCell>
        <mxCell id="SJSmvKwEZ4cIt8mxZRy5-338" value="FK" style="shape=partialRectangle;top=0;left=0;bottom=0;fillColor=none;align=left;verticalAlign=top;spacingLeft=4;spacingRight=4;overflow=hidden;rotatable=0;points=[];portConstraint=eastwest;part=1;rounded=0;" vertex="1" connectable="0" parent="SJSmvKwEZ4cIt8mxZRy5-337">
          <mxGeometry width="30" height="26" as="geometry" />
        </mxCell>
        <mxCell id="SJSmvKwEZ4cIt8mxZRy5-371" value="VIN" style="shape=partialRectangle;top=0;left=0;right=0;bottom=0;align=left;verticalAlign=top;fillColor=none;spacingLeft=34;spacingRight=4;overflow=hidden;rotatable=0;points=[[0,0.5],[1,0.5]];portConstraint=eastwest;dropTarget=0;fontStyle=0;rounded=0;" vertex="1" parent="SJSmvKwEZ4cIt8mxZRy5-326">
          <mxGeometry y="160" width="160" height="26" as="geometry" />
        </mxCell>
        <mxCell id="SJSmvKwEZ4cIt8mxZRy5-372" value="" style="shape=partialRectangle;top=0;left=0;bottom=0;fillColor=none;align=left;verticalAlign=top;spacingLeft=4;spacingRight=4;overflow=hidden;rotatable=0;points=[];portConstraint=eastwest;part=1;rounded=0;" vertex="1" connectable="0" parent="SJSmvKwEZ4cIt8mxZRy5-371">
          <mxGeometry width="30" height="26" as="geometry" />
        </mxCell>
        <mxCell id="SJSmvKwEZ4cIt8mxZRy5-335" value="plate_no" style="shape=partialRectangle;top=0;left=0;right=0;bottom=0;align=left;verticalAlign=top;fillColor=none;spacingLeft=34;spacingRight=4;overflow=hidden;rotatable=0;points=[[0,0.5],[1,0.5]];portConstraint=eastwest;dropTarget=0;fontStyle=0;rounded=0;" vertex="1" parent="SJSmvKwEZ4cIt8mxZRy5-326">
          <mxGeometry y="186" width="160" height="26" as="geometry" />
        </mxCell>
        <mxCell id="SJSmvKwEZ4cIt8mxZRy5-336" value="" style="shape=partialRectangle;top=0;left=0;bottom=0;fillColor=none;align=left;verticalAlign=top;spacingLeft=4;spacingRight=4;overflow=hidden;rotatable=0;points=[];portConstraint=eastwest;part=1;rounded=0;" vertex="1" connectable="0" parent="SJSmvKwEZ4cIt8mxZRy5-335">
          <mxGeometry width="30" height="26" as="geometry" />
        </mxCell>
        <mxCell id="SJSmvKwEZ4cIt8mxZRy5-356" value="engine_no" style="shape=partialRectangle;top=0;left=0;right=0;bottom=0;align=left;verticalAlign=top;fillColor=none;spacingLeft=34;spacingRight=4;overflow=hidden;rotatable=0;points=[[0,0.5],[1,0.5]];portConstraint=eastwest;dropTarget=0;fontStyle=0;rounded=0;" vertex="1" parent="SJSmvKwEZ4cIt8mxZRy5-326">
          <mxGeometry y="212" width="160" height="26" as="geometry" />
        </mxCell>
        <mxCell id="SJSmvKwEZ4cIt8mxZRy5-357" value="" style="shape=partialRectangle;top=0;left=0;bottom=0;fillColor=none;align=left;verticalAlign=top;spacingLeft=4;spacingRight=4;overflow=hidden;rotatable=0;points=[];portConstraint=eastwest;part=1;rounded=0;" vertex="1" connectable="0" parent="SJSmvKwEZ4cIt8mxZRy5-356">
          <mxGeometry width="30" height="26" as="geometry" />
        </mxCell>
        <mxCell id="SJSmvKwEZ4cIt8mxZRy5-331" value="" style="shape=partialRectangle;top=0;left=0;right=0;bottom=0;align=left;verticalAlign=top;fillColor=none;spacingLeft=34;spacingRight=4;overflow=hidden;rotatable=0;points=[[0,0.5],[1,0.5]];portConstraint=eastwest;dropTarget=0;rounded=0;" vertex="1" parent="SJSmvKwEZ4cIt8mxZRy5-326">
          <mxGeometry y="238" width="160" height="10" as="geometry" />
        </mxCell>
        <mxCell id="SJSmvKwEZ4cIt8mxZRy5-332" value="" style="shape=partialRectangle;top=0;left=0;bottom=0;fillColor=none;align=left;verticalAlign=top;spacingLeft=4;spacingRight=4;overflow=hidden;rotatable=0;points=[];portConstraint=eastwest;part=1;rounded=0;" vertex="1" connectable="0" parent="SJSmvKwEZ4cIt8mxZRy5-331">
          <mxGeometry width="30" height="10" as="geometry" />
        </mxCell>
        <mxCell id="SJSmvKwEZ4cIt8mxZRy5-360" value="Fuel Type" style="swimlane;fontStyle=0;childLayout=stackLayout;horizontal=1;startSize=26;fillColor=#F0F0F0;horizontalStack=0;resizeParent=1;resizeParentMax=0;resizeLast=0;collapsible=1;marginBottom=0;swimlaneFillColor=#F8CECC;align=center;strokeWidth=1;fontSize=13;strokeColor=#000000;rounded=0;" vertex="1" parent="1">
          <mxGeometry x="90" y="1161" width="160" height="92" as="geometry" />
        </mxCell>
        <mxCell id="SJSmvKwEZ4cIt8mxZRy5-361" value="FuelTypeID" style="shape=partialRectangle;top=0;left=0;right=0;bottom=1;align=left;verticalAlign=middle;fillColor=none;spacingLeft=34;spacingRight=4;overflow=hidden;rotatable=0;points=[[0,0.5],[1,0.5]];portConstraint=eastwest;dropTarget=0;fontStyle=5;strokeColor=#000000;rounded=0;" vertex="1" parent="SJSmvKwEZ4cIt8mxZRy5-360">
          <mxGeometry y="26" width="160" height="30" as="geometry" />
        </mxCell>
        <mxCell id="SJSmvKwEZ4cIt8mxZRy5-362" value="PK" style="shape=partialRectangle;top=0;left=0;bottom=0;fillColor=none;align=left;verticalAlign=middle;spacingLeft=4;spacingRight=4;overflow=hidden;rotatable=0;points=[];portConstraint=eastwest;part=1;fontStyle=1;rounded=0;" vertex="1" connectable="0" parent="SJSmvKwEZ4cIt8mxZRy5-361">
          <mxGeometry width="30" height="30" as="geometry" />
        </mxCell>
        <mxCell id="SJSmvKwEZ4cIt8mxZRy5-363" value="name" style="shape=partialRectangle;top=0;left=0;right=0;bottom=0;align=left;verticalAlign=top;fillColor=none;spacingLeft=34;spacingRight=4;overflow=hidden;rotatable=0;points=[[0,0.5],[1,0.5]];portConstraint=eastwest;dropTarget=0;fontStyle=0;rounded=0;" vertex="1" parent="SJSmvKwEZ4cIt8mxZRy5-360">
          <mxGeometry y="56" width="160" height="26" as="geometry" />
        </mxCell>
        <mxCell id="SJSmvKwEZ4cIt8mxZRy5-364" value="" style="shape=partialRectangle;top=0;left=0;bottom=0;fillColor=none;align=left;verticalAlign=top;spacingLeft=4;spacingRight=4;overflow=hidden;rotatable=0;points=[];portConstraint=eastwest;part=1;rounded=0;" vertex="1" connectable="0" parent="SJSmvKwEZ4cIt8mxZRy5-363">
          <mxGeometry width="30" height="26" as="geometry" />
        </mxCell>
        <mxCell id="SJSmvKwEZ4cIt8mxZRy5-365" value="" style="shape=partialRectangle;top=0;left=0;right=0;bottom=0;align=left;verticalAlign=top;fillColor=none;spacingLeft=34;spacingRight=4;overflow=hidden;rotatable=0;points=[[0,0.5],[1,0.5]];portConstraint=eastwest;dropTarget=0;rounded=0;" vertex="1" parent="SJSmvKwEZ4cIt8mxZRy5-360">
          <mxGeometry y="82" width="160" height="10" as="geometry" />
        </mxCell>
        <mxCell id="SJSmvKwEZ4cIt8mxZRy5-366" value="" style="shape=partialRectangle;top=0;left=0;bottom=0;fillColor=none;align=left;verticalAlign=top;spacingLeft=4;spacingRight=4;overflow=hidden;rotatable=0;points=[];portConstraint=eastwest;part=1;rounded=0;" vertex="1" connectable="0" parent="SJSmvKwEZ4cIt8mxZRy5-365">
          <mxGeometry width="30" height="10" as="geometry" />
        </mxCell>
        <mxCell id="SJSmvKwEZ4cIt8mxZRy5-368" value="" style="edgeStyle=entityRelationEdgeStyle;fontSize=12;html=1;endArrow=ERoneToMany;startArrow=ERmandOne;rounded=0;" edge="1" parent="1" source="SJSmvKwEZ4cIt8mxZRy5-320" target="SJSmvKwEZ4cIt8mxZRy5-333">
          <mxGeometry width="100" height="100" relative="1" as="geometry">
            <mxPoint x="255" y="637" as="sourcePoint" />
            <mxPoint x="490" y="383" as="targetPoint" />
          </mxGeometry>
        </mxCell>
        <mxCell id="SJSmvKwEZ4cIt8mxZRy5-369" value="" style="edgeStyle=entityRelationEdgeStyle;fontSize=12;html=1;endArrow=ERoneToMany;startArrow=ERmandOne;rounded=0;" edge="1" parent="1" source="SJSmvKwEZ4cIt8mxZRy5-311" target="SJSmvKwEZ4cIt8mxZRy5-329">
          <mxGeometry width="100" height="100" relative="1" as="geometry">
            <mxPoint x="260" y="1042" as="sourcePoint" />
            <mxPoint x="430" y="995" as="targetPoint" />
          </mxGeometry>
        </mxCell>
        <mxCell id="SJSmvKwEZ4cIt8mxZRy5-370" value="" style="edgeStyle=entityRelationEdgeStyle;fontSize=12;html=1;endArrow=ERoneToMany;startArrow=ERmandOne;rounded=0;" edge="1" parent="1" source="SJSmvKwEZ4cIt8mxZRy5-361" target="SJSmvKwEZ4cIt8mxZRy5-337">
          <mxGeometry width="100" height="100" relative="1" as="geometry">
            <mxPoint x="260" y="1042" as="sourcePoint" />
            <mxPoint x="430" y="995" as="targetPoint" />
          </mxGeometry>
        </mxCell>
        <mxCell id="SJSmvKwEZ4cIt8mxZRy5-374" value="" style="fontSize=12;html=1;endArrow=ERoneToMany;startArrow=ERmandOne;rounded=0;edgeStyle=orthogonalEdgeStyle;" edge="1" parent="1" source="SJSmvKwEZ4cIt8mxZRy5-101" target="SJSmvKwEZ4cIt8mxZRy5-326">
          <mxGeometry width="100" height="100" relative="1" as="geometry">
            <mxPoint x="860" y="580" as="sourcePoint" />
            <mxPoint x="1030" y="733" as="targetPoint" />
            <Array as="points">
              <mxPoint x="960" y="1040" />
            </Array>
          </mxGeometry>
        </mxCell>
        <mxCell id="SJSmvKwEZ4cIt8mxZRy5-446" value="Shop" style="swimlane;fontStyle=0;childLayout=stackLayout;horizontal=1;startSize=26;fillColor=#F0F0F0;horizontalStack=0;resizeParent=1;resizeParentMax=0;resizeLast=0;collapsible=1;marginBottom=0;swimlaneFillColor=#E5CCFF;align=center;strokeWidth=1;fontSize=13;strokeColor=#000000;rounded=0;" vertex="1" parent="1">
          <mxGeometry x="1090" y="70" width="160" height="144" as="geometry" />
        </mxCell>
        <mxCell id="SJSmvKwEZ4cIt8mxZRy5-447" value="ShopID" style="shape=partialRectangle;top=0;left=0;right=0;bottom=1;align=left;verticalAlign=middle;fillColor=none;spacingLeft=34;spacingRight=4;overflow=hidden;rotatable=0;points=[[0,0.5],[1,0.5]];portConstraint=eastwest;dropTarget=0;fontStyle=5;rounded=0;" vertex="1" parent="SJSmvKwEZ4cIt8mxZRy5-446">
          <mxGeometry y="26" width="160" height="30" as="geometry" />
        </mxCell>
        <mxCell id="SJSmvKwEZ4cIt8mxZRy5-448" value="PK" style="shape=partialRectangle;top=0;left=0;bottom=0;fillColor=none;align=left;verticalAlign=middle;spacingLeft=4;spacingRight=4;overflow=hidden;rotatable=0;points=[];portConstraint=eastwest;part=1;fontStyle=1;rounded=0;" vertex="1" connectable="0" parent="SJSmvKwEZ4cIt8mxZRy5-447">
          <mxGeometry width="30" height="30" as="geometry" />
        </mxCell>
        <mxCell id="SJSmvKwEZ4cIt8mxZRy5-449" value="shop_name" style="shape=partialRectangle;top=0;left=0;right=0;bottom=0;align=left;verticalAlign=top;fillColor=none;spacingLeft=34;spacingRight=4;overflow=hidden;rotatable=0;points=[[0,0.5],[1,0.5]];portConstraint=eastwest;dropTarget=0;rounded=0;" vertex="1" parent="SJSmvKwEZ4cIt8mxZRy5-446">
          <mxGeometry y="56" width="160" height="26" as="geometry" />
        </mxCell>
        <mxCell id="SJSmvKwEZ4cIt8mxZRy5-450" value="" style="shape=partialRectangle;top=0;left=0;bottom=0;fillColor=none;align=left;verticalAlign=top;spacingLeft=4;spacingRight=4;overflow=hidden;rotatable=0;points=[];portConstraint=eastwest;part=1;rounded=0;" vertex="1" connectable="0" parent="SJSmvKwEZ4cIt8mxZRy5-449">
          <mxGeometry width="30" height="26" as="geometry" />
        </mxCell>
        <mxCell id="SJSmvKwEZ4cIt8mxZRy5-451" value="shop_logo" style="shape=partialRectangle;top=0;left=0;right=0;bottom=0;align=left;verticalAlign=top;fillColor=none;spacingLeft=34;spacingRight=4;overflow=hidden;rotatable=0;points=[[0,0.5],[1,0.5]];portConstraint=eastwest;dropTarget=0;rounded=0;" vertex="1" parent="SJSmvKwEZ4cIt8mxZRy5-446">
          <mxGeometry y="82" width="160" height="26" as="geometry" />
        </mxCell>
        <mxCell id="SJSmvKwEZ4cIt8mxZRy5-452" value="" style="shape=partialRectangle;top=0;left=0;bottom=0;fillColor=none;align=left;verticalAlign=top;spacingLeft=4;spacingRight=4;overflow=hidden;rotatable=0;points=[];portConstraint=eastwest;part=1;rounded=0;" vertex="1" connectable="0" parent="SJSmvKwEZ4cIt8mxZRy5-451">
          <mxGeometry width="30" height="26" as="geometry" />
        </mxCell>
        <mxCell id="SJSmvKwEZ4cIt8mxZRy5-453" value="MainShopLocationID" style="shape=partialRectangle;top=0;left=0;right=0;bottom=0;align=left;verticalAlign=top;fillColor=none;spacingLeft=34;spacingRight=4;overflow=hidden;rotatable=0;points=[[0,0.5],[1,0.5]];portConstraint=eastwest;dropTarget=0;rounded=0;fontStyle=2" vertex="1" parent="SJSmvKwEZ4cIt8mxZRy5-446">
          <mxGeometry y="108" width="160" height="26" as="geometry" />
        </mxCell>
        <mxCell id="SJSmvKwEZ4cIt8mxZRy5-454" value="FK" style="shape=partialRectangle;top=0;left=0;bottom=0;fillColor=none;align=left;verticalAlign=top;spacingLeft=4;spacingRight=4;overflow=hidden;rotatable=0;points=[];portConstraint=eastwest;part=1;rounded=0;" vertex="1" connectable="0" parent="SJSmvKwEZ4cIt8mxZRy5-453">
          <mxGeometry width="30" height="26" as="geometry" />
        </mxCell>
        <mxCell id="SJSmvKwEZ4cIt8mxZRy5-455" value="" style="shape=partialRectangle;top=0;left=0;right=0;bottom=0;align=left;verticalAlign=top;fillColor=none;spacingLeft=34;spacingRight=4;overflow=hidden;rotatable=0;points=[[0,0.5],[1,0.5]];portConstraint=eastwest;dropTarget=0;rounded=0;" vertex="1" parent="SJSmvKwEZ4cIt8mxZRy5-446">
          <mxGeometry y="134" width="160" height="10" as="geometry" />
        </mxCell>
        <mxCell id="SJSmvKwEZ4cIt8mxZRy5-456" value="" style="shape=partialRectangle;top=0;left=0;bottom=0;fillColor=none;align=left;verticalAlign=top;spacingLeft=4;spacingRight=4;overflow=hidden;rotatable=0;points=[];portConstraint=eastwest;part=1;rounded=0;" vertex="1" connectable="0" parent="SJSmvKwEZ4cIt8mxZRy5-455">
          <mxGeometry width="30" height="10" as="geometry" />
        </mxCell>
        <mxCell id="SJSmvKwEZ4cIt8mxZRy5-457" value="Shop Location" style="swimlane;fontStyle=0;childLayout=stackLayout;horizontal=1;startSize=26;fillColor=#F0F0F0;horizontalStack=0;resizeParent=1;resizeParentMax=0;resizeLast=0;collapsible=1;marginBottom=0;swimlaneFillColor=#E5CCFF;align=center;strokeWidth=1;fontSize=13;strokeColor=#000000;rounded=0;" vertex="1" parent="1">
          <mxGeometry x="1090" y="390" width="160" height="248" as="geometry" />
        </mxCell>
        <mxCell id="SJSmvKwEZ4cIt8mxZRy5-458" value="ShopLocationID" style="shape=partialRectangle;top=0;left=0;right=0;bottom=1;align=left;verticalAlign=middle;fillColor=none;spacingLeft=34;spacingRight=4;overflow=hidden;rotatable=0;points=[[0,0.5],[1,0.5]];portConstraint=eastwest;dropTarget=0;fontStyle=5;rounded=0;" vertex="1" parent="SJSmvKwEZ4cIt8mxZRy5-457">
          <mxGeometry y="26" width="160" height="30" as="geometry" />
        </mxCell>
        <mxCell id="SJSmvKwEZ4cIt8mxZRy5-459" value="PK" style="shape=partialRectangle;top=0;left=0;bottom=0;fillColor=none;align=left;verticalAlign=middle;spacingLeft=4;spacingRight=4;overflow=hidden;rotatable=0;points=[];portConstraint=eastwest;part=1;fontStyle=1;rounded=0;" vertex="1" connectable="0" parent="SJSmvKwEZ4cIt8mxZRy5-458">
          <mxGeometry width="30" height="30" as="geometry" />
        </mxCell>
        <mxCell id="SJSmvKwEZ4cIt8mxZRy5-460" value="ShopID" style="shape=partialRectangle;top=0;left=0;right=0;bottom=0;align=left;verticalAlign=top;fillColor=none;spacingLeft=34;spacingRight=4;overflow=hidden;rotatable=0;points=[[0,0.5],[1,0.5]];portConstraint=eastwest;dropTarget=0;rounded=0;fontStyle=2" vertex="1" parent="SJSmvKwEZ4cIt8mxZRy5-457">
          <mxGeometry y="56" width="160" height="26" as="geometry" />
        </mxCell>
        <mxCell id="SJSmvKwEZ4cIt8mxZRy5-461" value="FK" style="shape=partialRectangle;top=0;left=0;bottom=0;fillColor=none;align=left;verticalAlign=top;spacingLeft=4;spacingRight=4;overflow=hidden;rotatable=0;points=[];portConstraint=eastwest;part=1;rounded=0;" vertex="1" connectable="0" parent="SJSmvKwEZ4cIt8mxZRy5-460">
          <mxGeometry width="30" height="26" as="geometry" />
        </mxCell>
        <mxCell id="SJSmvKwEZ4cIt8mxZRy5-462" value="AddressID" style="shape=partialRectangle;top=0;left=0;right=0;bottom=0;align=left;verticalAlign=top;fillColor=none;spacingLeft=34;spacingRight=4;overflow=hidden;rotatable=0;points=[[0,0.5],[1,0.5]];portConstraint=eastwest;dropTarget=0;rounded=0;fontStyle=2" vertex="1" parent="SJSmvKwEZ4cIt8mxZRy5-457">
          <mxGeometry y="82" width="160" height="26" as="geometry" />
        </mxCell>
        <mxCell id="SJSmvKwEZ4cIt8mxZRy5-463" value="FK" style="shape=partialRectangle;top=0;left=0;bottom=0;fillColor=none;align=left;verticalAlign=top;spacingLeft=4;spacingRight=4;overflow=hidden;rotatable=0;points=[];portConstraint=eastwest;part=1;rounded=0;" vertex="1" connectable="0" parent="SJSmvKwEZ4cIt8mxZRy5-462">
          <mxGeometry width="30" height="26" as="geometry" />
        </mxCell>
        <mxCell id="SJSmvKwEZ4cIt8mxZRy5-464" value="coordinates" style="shape=partialRectangle;top=0;left=0;right=0;bottom=0;align=left;verticalAlign=top;fillColor=none;spacingLeft=34;spacingRight=4;overflow=hidden;rotatable=0;points=[[0,0.5],[1,0.5]];portConstraint=eastwest;dropTarget=0;rounded=0;" vertex="1" parent="SJSmvKwEZ4cIt8mxZRy5-457">
          <mxGeometry y="108" width="160" height="26" as="geometry" />
        </mxCell>
        <mxCell id="SJSmvKwEZ4cIt8mxZRy5-465" value="" style="shape=partialRectangle;top=0;left=0;bottom=0;fillColor=none;align=left;verticalAlign=top;spacingLeft=4;spacingRight=4;overflow=hidden;rotatable=0;points=[];portConstraint=eastwest;part=1;rounded=0;" vertex="1" connectable="0" parent="SJSmvKwEZ4cIt8mxZRy5-464">
          <mxGeometry width="30" height="26" as="geometry" />
        </mxCell>
        <mxCell id="SJSmvKwEZ4cIt8mxZRy5-468" value="business_permit" style="shape=partialRectangle;top=0;left=0;right=0;bottom=0;align=left;verticalAlign=top;fillColor=none;spacingLeft=34;spacingRight=4;overflow=hidden;rotatable=0;points=[[0,0.5],[1,0.5]];portConstraint=eastwest;dropTarget=0;rounded=0;" vertex="1" parent="SJSmvKwEZ4cIt8mxZRy5-457">
          <mxGeometry y="134" width="160" height="26" as="geometry" />
        </mxCell>
        <mxCell id="SJSmvKwEZ4cIt8mxZRy5-469" value="" style="shape=partialRectangle;top=0;left=0;bottom=0;fillColor=none;align=left;verticalAlign=top;spacingLeft=4;spacingRight=4;overflow=hidden;rotatable=0;points=[];portConstraint=eastwest;part=1;rounded=0;" vertex="1" connectable="0" parent="SJSmvKwEZ4cIt8mxZRy5-468">
          <mxGeometry width="30" height="26" as="geometry" />
        </mxCell>
        <mxCell id="SJSmvKwEZ4cIt8mxZRy5-470" value="operating_hours" style="shape=partialRectangle;top=0;left=0;right=0;bottom=0;align=left;verticalAlign=top;fillColor=none;spacingLeft=34;spacingRight=4;overflow=hidden;rotatable=0;points=[[0,0.5],[1,0.5]];portConstraint=eastwest;dropTarget=0;rounded=0;" vertex="1" parent="SJSmvKwEZ4cIt8mxZRy5-457">
          <mxGeometry y="160" width="160" height="26" as="geometry" />
        </mxCell>
        <mxCell id="SJSmvKwEZ4cIt8mxZRy5-471" value="" style="shape=partialRectangle;top=0;left=0;bottom=0;fillColor=none;align=left;verticalAlign=top;spacingLeft=4;spacingRight=4;overflow=hidden;rotatable=0;points=[];portConstraint=eastwest;part=1;rounded=0;" vertex="1" connectable="0" parent="SJSmvKwEZ4cIt8mxZRy5-470">
          <mxGeometry width="30" height="26" as="geometry" />
        </mxCell>
        <mxCell id="SJSmvKwEZ4cIt8mxZRy5-472" value="workshop_since" style="shape=partialRectangle;top=0;left=0;right=0;bottom=0;align=left;verticalAlign=top;fillColor=none;spacingLeft=34;spacingRight=4;overflow=hidden;rotatable=0;points=[[0,0.5],[1,0.5]];portConstraint=eastwest;dropTarget=0;rounded=0;" vertex="1" parent="SJSmvKwEZ4cIt8mxZRy5-457">
          <mxGeometry y="186" width="160" height="26" as="geometry" />
        </mxCell>
        <mxCell id="SJSmvKwEZ4cIt8mxZRy5-473" value="" style="shape=partialRectangle;top=0;left=0;bottom=0;fillColor=none;align=left;verticalAlign=top;spacingLeft=4;spacingRight=4;overflow=hidden;rotatable=0;points=[];portConstraint=eastwest;part=1;rounded=0;" vertex="1" connectable="0" parent="SJSmvKwEZ4cIt8mxZRy5-472">
          <mxGeometry width="30" height="26" as="geometry" />
        </mxCell>
        <mxCell id="SJSmvKwEZ4cIt8mxZRy5-474" value="shop_metadata" style="shape=partialRectangle;top=0;left=0;right=0;bottom=0;align=left;verticalAlign=top;fillColor=none;spacingLeft=34;spacingRight=4;overflow=hidden;rotatable=0;points=[[0,0.5],[1,0.5]];portConstraint=eastwest;dropTarget=0;rounded=0;" vertex="1" parent="SJSmvKwEZ4cIt8mxZRy5-457">
          <mxGeometry y="212" width="160" height="26" as="geometry" />
        </mxCell>
        <mxCell id="SJSmvKwEZ4cIt8mxZRy5-475" value="" style="shape=partialRectangle;top=0;left=0;bottom=0;fillColor=none;align=left;verticalAlign=top;spacingLeft=4;spacingRight=4;overflow=hidden;rotatable=0;points=[];portConstraint=eastwest;part=1;rounded=0;" vertex="1" connectable="0" parent="SJSmvKwEZ4cIt8mxZRy5-474">
          <mxGeometry width="30" height="26" as="geometry" />
        </mxCell>
        <mxCell id="SJSmvKwEZ4cIt8mxZRy5-466" value="" style="shape=partialRectangle;top=0;left=0;right=0;bottom=0;align=left;verticalAlign=top;fillColor=none;spacingLeft=34;spacingRight=4;overflow=hidden;rotatable=0;points=[[0,0.5],[1,0.5]];portConstraint=eastwest;dropTarget=0;rounded=0;" vertex="1" parent="SJSmvKwEZ4cIt8mxZRy5-457">
          <mxGeometry y="238" width="160" height="10" as="geometry" />
        </mxCell>
        <mxCell id="SJSmvKwEZ4cIt8mxZRy5-467" value="" style="shape=partialRectangle;top=0;left=0;bottom=0;fillColor=none;align=left;verticalAlign=top;spacingLeft=4;spacingRight=4;overflow=hidden;rotatable=0;points=[];portConstraint=eastwest;part=1;rounded=0;" vertex="1" connectable="0" parent="SJSmvKwEZ4cIt8mxZRy5-466">
          <mxGeometry width="30" height="10" as="geometry" />
        </mxCell>
        <mxCell id="SJSmvKwEZ4cIt8mxZRy5-476" value="" style="fontSize=12;html=1;endArrow=ERoneToMany;startArrow=ERmandOne;rounded=0;" edge="1" parent="1" source="SJSmvKwEZ4cIt8mxZRy5-446" target="SJSmvKwEZ4cIt8mxZRy5-457">
          <mxGeometry width="100" height="100" relative="1" as="geometry">
            <mxPoint x="255" y="637" as="sourcePoint" />
            <mxPoint x="490" y="383" as="targetPoint" />
          </mxGeometry>
        </mxCell>
        <mxCell id="SJSmvKwEZ4cIt8mxZRy5-477" value="" style="fontSize=12;html=1;endArrow=ERoneToMany;startArrow=ERmandOne;rounded=0;edgeStyle=orthogonalEdgeStyle;" edge="1" parent="1" source="SJSmvKwEZ4cIt8mxZRy5-154" target="SJSmvKwEZ4cIt8mxZRy5-462">
          <mxGeometry width="100" height="100" relative="1" as="geometry">
            <mxPoint x="820" y="530" as="sourcePoint" />
            <mxPoint x="920" y="430" as="targetPoint" />
          </mxGeometry>
        </mxCell>
        <mxCell id="SJSmvKwEZ4cIt8mxZRy5-478" value="Service Category" style="swimlane;fontStyle=0;childLayout=stackLayout;horizontal=1;startSize=26;fillColor=#F0F0F0;horizontalStack=0;resizeParent=1;resizeParentMax=0;resizeLast=0;collapsible=1;marginBottom=0;swimlaneFillColor=#E5CCFF;align=center;strokeWidth=1;fontSize=13;strokeColor=#000000;rounded=0;" vertex="1" parent="1">
          <mxGeometry x="1420" y="50" width="160" height="144" as="geometry" />
        </mxCell>
        <mxCell id="SJSmvKwEZ4cIt8mxZRy5-510" style="edgeStyle=orthogonalEdgeStyle;rounded=0;orthogonalLoop=1;jettySize=auto;html=1;exitX=1;exitY=0.5;exitDx=0;exitDy=0;endArrow=ERzeroToMany;endFill=0;startArrow=ERzeroToOne;startFill=0;" edge="1" parent="SJSmvKwEZ4cIt8mxZRy5-478" source="SJSmvKwEZ4cIt8mxZRy5-479" target="SJSmvKwEZ4cIt8mxZRy5-485">
          <mxGeometry relative="1" as="geometry" />
        </mxCell>
        <mxCell id="SJSmvKwEZ4cIt8mxZRy5-479" value="ServiceCategoryID" style="shape=partialRectangle;top=0;left=0;right=0;bottom=1;align=left;verticalAlign=middle;fillColor=none;spacingLeft=34;spacingRight=4;overflow=hidden;rotatable=0;points=[[0,0.5],[1,0.5]];portConstraint=eastwest;dropTarget=0;fontStyle=5;rounded=0;" vertex="1" parent="SJSmvKwEZ4cIt8mxZRy5-478">
          <mxGeometry y="26" width="160" height="30" as="geometry" />
        </mxCell>
        <mxCell id="SJSmvKwEZ4cIt8mxZRy5-480" value="PK" style="shape=partialRectangle;top=0;left=0;bottom=0;fillColor=none;align=left;verticalAlign=middle;spacingLeft=4;spacingRight=4;overflow=hidden;rotatable=0;points=[];portConstraint=eastwest;part=1;fontStyle=1;rounded=0;" vertex="1" connectable="0" parent="SJSmvKwEZ4cIt8mxZRy5-479">
          <mxGeometry width="30" height="30" as="geometry" />
        </mxCell>
        <mxCell id="SJSmvKwEZ4cIt8mxZRy5-481" value="category_name" style="shape=partialRectangle;top=0;left=0;right=0;bottom=0;align=left;verticalAlign=top;fillColor=none;spacingLeft=34;spacingRight=4;overflow=hidden;rotatable=0;points=[[0,0.5],[1,0.5]];portConstraint=eastwest;dropTarget=0;rounded=0;" vertex="1" parent="SJSmvKwEZ4cIt8mxZRy5-478">
          <mxGeometry y="56" width="160" height="26" as="geometry" />
        </mxCell>
        <mxCell id="SJSmvKwEZ4cIt8mxZRy5-482" value="" style="shape=partialRectangle;top=0;left=0;bottom=0;fillColor=none;align=left;verticalAlign=top;spacingLeft=4;spacingRight=4;overflow=hidden;rotatable=0;points=[];portConstraint=eastwest;part=1;rounded=0;" vertex="1" connectable="0" parent="SJSmvKwEZ4cIt8mxZRy5-481">
          <mxGeometry width="30" height="26" as="geometry" />
        </mxCell>
        <mxCell id="SJSmvKwEZ4cIt8mxZRy5-483" value="description" style="shape=partialRectangle;top=0;left=0;right=0;bottom=0;align=left;verticalAlign=top;fillColor=none;spacingLeft=34;spacingRight=4;overflow=hidden;rotatable=0;points=[[0,0.5],[1,0.5]];portConstraint=eastwest;dropTarget=0;rounded=0;" vertex="1" parent="SJSmvKwEZ4cIt8mxZRy5-478">
          <mxGeometry y="82" width="160" height="26" as="geometry" />
        </mxCell>
        <mxCell id="SJSmvKwEZ4cIt8mxZRy5-484" value="" style="shape=partialRectangle;top=0;left=0;bottom=0;fillColor=none;align=left;verticalAlign=top;spacingLeft=4;spacingRight=4;overflow=hidden;rotatable=0;points=[];portConstraint=eastwest;part=1;rounded=0;" vertex="1" connectable="0" parent="SJSmvKwEZ4cIt8mxZRy5-483">
          <mxGeometry width="30" height="26" as="geometry" />
        </mxCell>
        <mxCell id="SJSmvKwEZ4cIt8mxZRy5-485" value="parentID" style="shape=partialRectangle;top=0;left=0;right=0;bottom=0;align=left;verticalAlign=top;fillColor=none;spacingLeft=34;spacingRight=4;overflow=hidden;rotatable=0;points=[[0,0.5],[1,0.5]];portConstraint=eastwest;dropTarget=0;rounded=0;fontStyle=2" vertex="1" parent="SJSmvKwEZ4cIt8mxZRy5-478">
          <mxGeometry y="108" width="160" height="26" as="geometry" />
        </mxCell>
        <mxCell id="SJSmvKwEZ4cIt8mxZRy5-486" value="FK" style="shape=partialRectangle;top=0;left=0;bottom=0;fillColor=none;align=left;verticalAlign=top;spacingLeft=4;spacingRight=4;overflow=hidden;rotatable=0;points=[];portConstraint=eastwest;part=1;rounded=0;" vertex="1" connectable="0" parent="SJSmvKwEZ4cIt8mxZRy5-485">
          <mxGeometry width="30" height="26" as="geometry" />
        </mxCell>
        <mxCell id="SJSmvKwEZ4cIt8mxZRy5-487" value="" style="shape=partialRectangle;top=0;left=0;right=0;bottom=0;align=left;verticalAlign=top;fillColor=none;spacingLeft=34;spacingRight=4;overflow=hidden;rotatable=0;points=[[0,0.5],[1,0.5]];portConstraint=eastwest;dropTarget=0;rounded=0;" vertex="1" parent="SJSmvKwEZ4cIt8mxZRy5-478">
          <mxGeometry y="134" width="160" height="10" as="geometry" />
        </mxCell>
        <mxCell id="SJSmvKwEZ4cIt8mxZRy5-488" value="" style="shape=partialRectangle;top=0;left=0;bottom=0;fillColor=none;align=left;verticalAlign=top;spacingLeft=4;spacingRight=4;overflow=hidden;rotatable=0;points=[];portConstraint=eastwest;part=1;rounded=0;" vertex="1" connectable="0" parent="SJSmvKwEZ4cIt8mxZRy5-487">
          <mxGeometry width="30" height="10" as="geometry" />
        </mxCell>
        <mxCell id="SJSmvKwEZ4cIt8mxZRy5-489" value="Services Offered" style="swimlane;fontStyle=0;childLayout=stackLayout;horizontal=1;startSize=26;fillColor=#F0F0F0;horizontalStack=0;resizeParent=1;resizeParentMax=0;resizeLast=0;collapsible=1;marginBottom=0;swimlaneFillColor=#E5CCFF;align=center;strokeWidth=1;fontSize=13;strokeColor=#000000;rounded=0;" vertex="1" parent="1">
          <mxGeometry x="1420" y="272" width="160" height="196" as="geometry" />
        </mxCell>
        <mxCell id="SJSmvKwEZ4cIt8mxZRy5-490" value="ServicesOfferedID" style="shape=partialRectangle;top=0;left=0;right=0;bottom=1;align=left;verticalAlign=middle;fillColor=none;spacingLeft=34;spacingRight=4;overflow=hidden;rotatable=0;points=[[0,0.5],[1,0.5]];portConstraint=eastwest;dropTarget=0;fontStyle=5;rounded=0;" vertex="1" parent="SJSmvKwEZ4cIt8mxZRy5-489">
          <mxGeometry y="26" width="160" height="30" as="geometry" />
        </mxCell>
        <mxCell id="SJSmvKwEZ4cIt8mxZRy5-491" value="PK" style="shape=partialRectangle;top=0;left=0;bottom=0;fillColor=none;align=left;verticalAlign=middle;spacingLeft=4;spacingRight=4;overflow=hidden;rotatable=0;points=[];portConstraint=eastwest;part=1;fontStyle=1;rounded=0;" vertex="1" connectable="0" parent="SJSmvKwEZ4cIt8mxZRy5-490">
          <mxGeometry width="30" height="30" as="geometry" />
        </mxCell>
        <mxCell id="SJSmvKwEZ4cIt8mxZRy5-492" value="ServiceCategoryID" style="shape=partialRectangle;top=0;left=0;right=0;bottom=0;align=left;verticalAlign=top;fillColor=none;spacingLeft=34;spacingRight=4;overflow=hidden;rotatable=0;points=[[0,0.5],[1,0.5]];portConstraint=eastwest;dropTarget=0;rounded=0;fontStyle=2" vertex="1" parent="SJSmvKwEZ4cIt8mxZRy5-489">
          <mxGeometry y="56" width="160" height="26" as="geometry" />
        </mxCell>
        <mxCell id="SJSmvKwEZ4cIt8mxZRy5-493" value="FK" style="shape=partialRectangle;top=0;left=0;bottom=0;fillColor=none;align=left;verticalAlign=top;spacingLeft=4;spacingRight=4;overflow=hidden;rotatable=0;points=[];portConstraint=eastwest;part=1;rounded=0;" vertex="1" connectable="0" parent="SJSmvKwEZ4cIt8mxZRy5-492">
          <mxGeometry width="30" height="26" as="geometry" />
        </mxCell>
        <mxCell id="SJSmvKwEZ4cIt8mxZRy5-500" value="ShopLocationID" style="shape=partialRectangle;top=0;left=0;right=0;bottom=0;align=left;verticalAlign=top;fillColor=none;spacingLeft=34;spacingRight=4;overflow=hidden;rotatable=0;points=[[0,0.5],[1,0.5]];portConstraint=eastwest;dropTarget=0;rounded=0;fontStyle=2" vertex="1" parent="SJSmvKwEZ4cIt8mxZRy5-489">
          <mxGeometry y="82" width="160" height="26" as="geometry" />
        </mxCell>
        <mxCell id="SJSmvKwEZ4cIt8mxZRy5-501" value="FK" style="shape=partialRectangle;top=0;left=0;bottom=0;fillColor=none;align=left;verticalAlign=top;spacingLeft=4;spacingRight=4;overflow=hidden;rotatable=0;points=[];portConstraint=eastwest;part=1;rounded=0;" vertex="1" connectable="0" parent="SJSmvKwEZ4cIt8mxZRy5-500">
          <mxGeometry width="30" height="26" as="geometry" />
        </mxCell>
        <mxCell id="SJSmvKwEZ4cIt8mxZRy5-504" value="price" style="shape=partialRectangle;top=0;left=0;right=0;bottom=0;align=left;verticalAlign=top;fillColor=none;spacingLeft=34;spacingRight=4;overflow=hidden;rotatable=0;points=[[0,0.5],[1,0.5]];portConstraint=eastwest;dropTarget=0;rounded=0;" vertex="1" parent="SJSmvKwEZ4cIt8mxZRy5-489">
          <mxGeometry y="108" width="160" height="26" as="geometry" />
        </mxCell>
        <mxCell id="SJSmvKwEZ4cIt8mxZRy5-505" value="" style="shape=partialRectangle;top=0;left=0;bottom=0;fillColor=none;align=left;verticalAlign=top;spacingLeft=4;spacingRight=4;overflow=hidden;rotatable=0;points=[];portConstraint=eastwest;part=1;rounded=0;" vertex="1" connectable="0" parent="SJSmvKwEZ4cIt8mxZRy5-504">
          <mxGeometry width="30" height="26" as="geometry" />
        </mxCell>
        <mxCell id="SJSmvKwEZ4cIt8mxZRy5-496" value="status" style="shape=partialRectangle;top=0;left=0;right=0;bottom=0;align=left;verticalAlign=top;fillColor=none;spacingLeft=34;spacingRight=4;overflow=hidden;rotatable=0;points=[[0,0.5],[1,0.5]];portConstraint=eastwest;dropTarget=0;rounded=0;fontStyle=0" vertex="1" parent="SJSmvKwEZ4cIt8mxZRy5-489">
          <mxGeometry y="134" width="160" height="26" as="geometry" />
        </mxCell>
        <mxCell id="SJSmvKwEZ4cIt8mxZRy5-497" value="" style="shape=partialRectangle;top=0;left=0;bottom=0;fillColor=none;align=left;verticalAlign=top;spacingLeft=4;spacingRight=4;overflow=hidden;rotatable=0;points=[];portConstraint=eastwest;part=1;rounded=0;" vertex="1" connectable="0" parent="SJSmvKwEZ4cIt8mxZRy5-496">
          <mxGeometry width="30" height="26" as="geometry" />
        </mxCell>
        <mxCell id="SJSmvKwEZ4cIt8mxZRy5-502" value="service_metadata" style="shape=partialRectangle;top=0;left=0;right=0;bottom=0;align=left;verticalAlign=top;fillColor=none;spacingLeft=34;spacingRight=4;overflow=hidden;rotatable=0;points=[[0,0.5],[1,0.5]];portConstraint=eastwest;dropTarget=0;rounded=0;fontStyle=0" vertex="1" parent="SJSmvKwEZ4cIt8mxZRy5-489">
          <mxGeometry y="160" width="160" height="26" as="geometry" />
        </mxCell>
        <mxCell id="SJSmvKwEZ4cIt8mxZRy5-503" value="" style="shape=partialRectangle;top=0;left=0;bottom=0;fillColor=none;align=left;verticalAlign=top;spacingLeft=4;spacingRight=4;overflow=hidden;rotatable=0;points=[];portConstraint=eastwest;part=1;rounded=0;" vertex="1" connectable="0" parent="SJSmvKwEZ4cIt8mxZRy5-502">
          <mxGeometry width="30" height="26" as="geometry" />
        </mxCell>
        <mxCell id="SJSmvKwEZ4cIt8mxZRy5-498" value="" style="shape=partialRectangle;top=0;left=0;right=0;bottom=0;align=left;verticalAlign=top;fillColor=none;spacingLeft=34;spacingRight=4;overflow=hidden;rotatable=0;points=[[0,0.5],[1,0.5]];portConstraint=eastwest;dropTarget=0;rounded=0;" vertex="1" parent="SJSmvKwEZ4cIt8mxZRy5-489">
          <mxGeometry y="186" width="160" height="10" as="geometry" />
        </mxCell>
        <mxCell id="SJSmvKwEZ4cIt8mxZRy5-499" value="" style="shape=partialRectangle;top=0;left=0;bottom=0;fillColor=none;align=left;verticalAlign=top;spacingLeft=4;spacingRight=4;overflow=hidden;rotatable=0;points=[];portConstraint=eastwest;part=1;rounded=0;" vertex="1" connectable="0" parent="SJSmvKwEZ4cIt8mxZRy5-498">
          <mxGeometry width="30" height="10" as="geometry" />
        </mxCell>
        <mxCell id="SJSmvKwEZ4cIt8mxZRy5-508" value="" style="edgeStyle=entityRelationEdgeStyle;fontSize=12;html=1;endArrow=ERoneToMany;startArrow=ERmandOne;rounded=0;" edge="1" parent="1" source="SJSmvKwEZ4cIt8mxZRy5-447" target="SJSmvKwEZ4cIt8mxZRy5-460">
          <mxGeometry width="100" height="100" relative="1" as="geometry">
            <mxPoint x="255" y="637" as="sourcePoint" />
            <mxPoint x="490" y="383" as="targetPoint" />
          </mxGeometry>
        </mxCell>
        <mxCell id="SJSmvKwEZ4cIt8mxZRy5-509" style="edgeStyle=orthogonalEdgeStyle;rounded=0;orthogonalLoop=1;jettySize=auto;html=1;exitX=1;exitY=0.5;exitDx=0;exitDy=0;endArrow=ERone;endFill=0;startArrow=ERone;startFill=0;" edge="1" parent="1" source="SJSmvKwEZ4cIt8mxZRy5-458" target="SJSmvKwEZ4cIt8mxZRy5-453">
          <mxGeometry relative="1" as="geometry" />
        </mxCell>
        <mxCell id="SJSmvKwEZ4cIt8mxZRy5-511" value="" style="fontSize=12;html=1;endArrow=ERoneToMany;startArrow=ERmandOne;rounded=0;entryX=0.5;entryY=0;entryDx=0;entryDy=0;" edge="1" parent="1" source="SJSmvKwEZ4cIt8mxZRy5-478" target="SJSmvKwEZ4cIt8mxZRy5-489">
          <mxGeometry width="100" height="100" relative="1" as="geometry">
            <mxPoint x="1310" y="520" as="sourcePoint" />
            <mxPoint x="1410" y="420" as="targetPoint" />
          </mxGeometry>
        </mxCell>
        <mxCell id="SJSmvKwEZ4cIt8mxZRy5-512" style="rounded=0;orthogonalLoop=1;jettySize=auto;html=1;endArrow=ERoneToMany;endFill=0;startArrow=ERmandOne;startFill=0;exitX=1;exitY=0.5;exitDx=0;exitDy=0;edgeStyle=orthogonalEdgeStyle;" edge="1" parent="1" source="SJSmvKwEZ4cIt8mxZRy5-468" target="SJSmvKwEZ4cIt8mxZRy5-489">
          <mxGeometry relative="1" as="geometry">
            <mxPoint x="1420" y="428.969696969697" as="targetPoint" />
            <mxPoint x="1250" y="431.03030303030323" as="sourcePoint" />
          </mxGeometry>
        </mxCell>
        <mxCell id="SJSmvKwEZ4cIt8mxZRy5-544" value="Conversation" style="swimlane;fontStyle=0;childLayout=stackLayout;horizontal=1;startSize=26;fillColor=#F0F0F0;horizontalStack=0;resizeParent=1;resizeParentMax=0;resizeLast=0;collapsible=1;marginBottom=0;swimlaneFillColor=#E5CCFF;align=center;strokeWidth=1;fontSize=13;strokeColor=#000000;rounded=0;" vertex="1" parent="1">
          <mxGeometry x="770" y="520" width="160" height="118" as="geometry" />
        </mxCell>
        <mxCell id="SJSmvKwEZ4cIt8mxZRy5-545" value="ConversationID" style="shape=partialRectangle;top=0;left=0;right=0;bottom=1;align=left;verticalAlign=middle;fillColor=none;spacingLeft=34;spacingRight=4;overflow=hidden;rotatable=0;points=[[0,0.5],[1,0.5]];portConstraint=eastwest;dropTarget=0;fontStyle=5;rounded=0;" vertex="1" parent="SJSmvKwEZ4cIt8mxZRy5-544">
          <mxGeometry y="26" width="160" height="30" as="geometry" />
        </mxCell>
        <mxCell id="SJSmvKwEZ4cIt8mxZRy5-546" value="PK" style="shape=partialRectangle;top=0;left=0;bottom=0;fillColor=none;align=left;verticalAlign=middle;spacingLeft=4;spacingRight=4;overflow=hidden;rotatable=0;points=[];portConstraint=eastwest;part=1;fontStyle=1;rounded=0;" vertex="1" connectable="0" parent="SJSmvKwEZ4cIt8mxZRy5-545">
          <mxGeometry width="30" height="30" as="geometry" />
        </mxCell>
        <mxCell id="SJSmvKwEZ4cIt8mxZRy5-547" value="UserID" style="shape=partialRectangle;top=0;left=0;right=0;bottom=0;align=left;verticalAlign=top;fillColor=none;spacingLeft=34;spacingRight=4;overflow=hidden;rotatable=0;points=[[0,0.5],[1,0.5]];portConstraint=eastwest;dropTarget=0;rounded=0;" vertex="1" parent="SJSmvKwEZ4cIt8mxZRy5-544">
          <mxGeometry y="56" width="160" height="26" as="geometry" />
        </mxCell>
        <mxCell id="SJSmvKwEZ4cIt8mxZRy5-548" value="FK" style="shape=partialRectangle;top=0;left=0;bottom=0;fillColor=none;align=left;verticalAlign=top;spacingLeft=4;spacingRight=4;overflow=hidden;rotatable=0;points=[];portConstraint=eastwest;part=1;rounded=0;" vertex="1" connectable="0" parent="SJSmvKwEZ4cIt8mxZRy5-547">
          <mxGeometry width="30" height="26" as="geometry" />
        </mxCell>
        <mxCell id="SJSmvKwEZ4cIt8mxZRy5-549" value="ShopLocationID" style="shape=partialRectangle;top=0;left=0;right=0;bottom=0;align=left;verticalAlign=top;fillColor=none;spacingLeft=34;spacingRight=4;overflow=hidden;rotatable=0;points=[[0,0.5],[1,0.5]];portConstraint=eastwest;dropTarget=0;rounded=0;" vertex="1" parent="SJSmvKwEZ4cIt8mxZRy5-544">
          <mxGeometry y="82" width="160" height="26" as="geometry" />
        </mxCell>
        <mxCell id="SJSmvKwEZ4cIt8mxZRy5-550" value="FK" style="shape=partialRectangle;top=0;left=0;bottom=0;fillColor=none;align=left;verticalAlign=top;spacingLeft=4;spacingRight=4;overflow=hidden;rotatable=0;points=[];portConstraint=eastwest;part=1;rounded=0;" vertex="1" connectable="0" parent="SJSmvKwEZ4cIt8mxZRy5-549">
          <mxGeometry width="30" height="26" as="geometry" />
        </mxCell>
        <mxCell id="SJSmvKwEZ4cIt8mxZRy5-553" value="" style="shape=partialRectangle;top=0;left=0;right=0;bottom=0;align=left;verticalAlign=top;fillColor=none;spacingLeft=34;spacingRight=4;overflow=hidden;rotatable=0;points=[[0,0.5],[1,0.5]];portConstraint=eastwest;dropTarget=0;rounded=0;" vertex="1" parent="SJSmvKwEZ4cIt8mxZRy5-544">
          <mxGeometry y="108" width="160" height="10" as="geometry" />
        </mxCell>
        <mxCell id="SJSmvKwEZ4cIt8mxZRy5-554" value="" style="shape=partialRectangle;top=0;left=0;bottom=0;fillColor=none;align=left;verticalAlign=top;spacingLeft=4;spacingRight=4;overflow=hidden;rotatable=0;points=[];portConstraint=eastwest;part=1;rounded=0;" vertex="1" connectable="0" parent="SJSmvKwEZ4cIt8mxZRy5-553">
          <mxGeometry width="30" height="10" as="geometry" />
        </mxCell>
        <mxCell id="SJSmvKwEZ4cIt8mxZRy5-555" value="Message" style="swimlane;fontStyle=0;childLayout=stackLayout;horizontal=1;startSize=26;fillColor=#F0F0F0;horizontalStack=0;resizeParent=1;resizeParentMax=0;resizeLast=0;collapsible=1;marginBottom=0;swimlaneFillColor=#E5CCFF;align=center;strokeWidth=1;fontSize=13;strokeColor=#000000;rounded=0;" vertex="1" parent="1">
          <mxGeometry x="490" y="492" width="160" height="172" as="geometry" />
        </mxCell>
        <mxCell id="SJSmvKwEZ4cIt8mxZRy5-556" value="MessageID" style="shape=partialRectangle;top=0;left=0;right=0;bottom=1;align=left;verticalAlign=middle;fillColor=none;spacingLeft=34;spacingRight=4;overflow=hidden;rotatable=0;points=[[0,0.5],[1,0.5]];portConstraint=eastwest;dropTarget=0;fontStyle=5;rounded=0;" vertex="1" parent="SJSmvKwEZ4cIt8mxZRy5-555">
          <mxGeometry y="26" width="160" height="30" as="geometry" />
        </mxCell>
        <mxCell id="SJSmvKwEZ4cIt8mxZRy5-557" value="PK" style="shape=partialRectangle;top=0;left=0;bottom=0;fillColor=none;align=left;verticalAlign=middle;spacingLeft=4;spacingRight=4;overflow=hidden;rotatable=0;points=[];portConstraint=eastwest;part=1;fontStyle=1;rounded=0;" vertex="1" connectable="0" parent="SJSmvKwEZ4cIt8mxZRy5-556">
          <mxGeometry width="30" height="30" as="geometry" />
        </mxCell>
        <mxCell id="SJSmvKwEZ4cIt8mxZRy5-558" value="ConversationID" style="shape=partialRectangle;top=0;left=0;right=0;bottom=0;align=left;verticalAlign=top;fillColor=none;spacingLeft=34;spacingRight=4;overflow=hidden;rotatable=0;points=[[0,0.5],[1,0.5]];portConstraint=eastwest;dropTarget=0;rounded=0;fontStyle=2" vertex="1" parent="SJSmvKwEZ4cIt8mxZRy5-555">
          <mxGeometry y="56" width="160" height="26" as="geometry" />
        </mxCell>
        <mxCell id="SJSmvKwEZ4cIt8mxZRy5-559" value="FK" style="shape=partialRectangle;top=0;left=0;bottom=0;fillColor=none;align=left;verticalAlign=top;spacingLeft=4;spacingRight=4;overflow=hidden;rotatable=0;points=[];portConstraint=eastwest;part=1;rounded=0;" vertex="1" connectable="0" parent="SJSmvKwEZ4cIt8mxZRy5-558">
          <mxGeometry width="30" height="26" as="geometry" />
        </mxCell>
        <mxCell id="SJSmvKwEZ4cIt8mxZRy5-560" value="SenderID" style="shape=partialRectangle;top=0;left=0;right=0;bottom=0;align=left;verticalAlign=top;fillColor=none;spacingLeft=34;spacingRight=4;overflow=hidden;rotatable=0;points=[[0,0.5],[1,0.5]];portConstraint=eastwest;dropTarget=0;rounded=0;fontStyle=2" vertex="1" parent="SJSmvKwEZ4cIt8mxZRy5-555">
          <mxGeometry y="82" width="160" height="28" as="geometry" />
        </mxCell>
        <mxCell id="SJSmvKwEZ4cIt8mxZRy5-561" value="FK" style="shape=partialRectangle;top=0;left=0;bottom=0;fillColor=none;align=left;verticalAlign=top;spacingLeft=4;spacingRight=4;overflow=hidden;rotatable=0;points=[];portConstraint=eastwest;part=1;rounded=0;" vertex="1" connectable="0" parent="SJSmvKwEZ4cIt8mxZRy5-560">
          <mxGeometry width="30" height="28" as="geometry" />
        </mxCell>
        <mxCell id="SJSmvKwEZ4cIt8mxZRy5-564" value="message_body" style="shape=partialRectangle;top=0;left=0;right=0;bottom=0;align=left;verticalAlign=top;fillColor=none;spacingLeft=34;spacingRight=4;overflow=hidden;rotatable=0;points=[[0,0.5],[1,0.5]];portConstraint=eastwest;dropTarget=0;rounded=0;fontStyle=0" vertex="1" parent="SJSmvKwEZ4cIt8mxZRy5-555">
          <mxGeometry y="110" width="160" height="26" as="geometry" />
        </mxCell>
        <mxCell id="SJSmvKwEZ4cIt8mxZRy5-565" value="" style="shape=partialRectangle;top=0;left=0;bottom=0;fillColor=none;align=left;verticalAlign=top;spacingLeft=4;spacingRight=4;overflow=hidden;rotatable=0;points=[];portConstraint=eastwest;part=1;rounded=0;" vertex="1" connectable="0" parent="SJSmvKwEZ4cIt8mxZRy5-564">
          <mxGeometry width="30" height="26" as="geometry" />
        </mxCell>
        <mxCell id="SJSmvKwEZ4cIt8mxZRy5-566" value="created_at" style="shape=partialRectangle;top=0;left=0;right=0;bottom=0;align=left;verticalAlign=top;fillColor=none;spacingLeft=34;spacingRight=4;overflow=hidden;rotatable=0;points=[[0,0.5],[1,0.5]];portConstraint=eastwest;dropTarget=0;rounded=0;fontStyle=0" vertex="1" parent="SJSmvKwEZ4cIt8mxZRy5-555">
          <mxGeometry y="136" width="160" height="26" as="geometry" />
        </mxCell>
        <mxCell id="SJSmvKwEZ4cIt8mxZRy5-567" value="" style="shape=partialRectangle;top=0;left=0;bottom=0;fillColor=none;align=left;verticalAlign=top;spacingLeft=4;spacingRight=4;overflow=hidden;rotatable=0;points=[];portConstraint=eastwest;part=1;rounded=0;" vertex="1" connectable="0" parent="SJSmvKwEZ4cIt8mxZRy5-566">
          <mxGeometry width="30" height="26" as="geometry" />
        </mxCell>
        <mxCell id="SJSmvKwEZ4cIt8mxZRy5-562" value="" style="shape=partialRectangle;top=0;left=0;right=0;bottom=0;align=left;verticalAlign=top;fillColor=none;spacingLeft=34;spacingRight=4;overflow=hidden;rotatable=0;points=[[0,0.5],[1,0.5]];portConstraint=eastwest;dropTarget=0;rounded=0;" vertex="1" parent="SJSmvKwEZ4cIt8mxZRy5-555">
          <mxGeometry y="162" width="160" height="10" as="geometry" />
        </mxCell>
        <mxCell id="SJSmvKwEZ4cIt8mxZRy5-563" value="" style="shape=partialRectangle;top=0;left=0;bottom=0;fillColor=none;align=left;verticalAlign=top;spacingLeft=4;spacingRight=4;overflow=hidden;rotatable=0;points=[];portConstraint=eastwest;part=1;rounded=0;" vertex="1" connectable="0" parent="SJSmvKwEZ4cIt8mxZRy5-562">
          <mxGeometry width="30" height="10" as="geometry" />
        </mxCell>
        <mxCell id="SJSmvKwEZ4cIt8mxZRy5-569" style="edgeStyle=orthogonalEdgeStyle;rounded=0;orthogonalLoop=1;jettySize=auto;html=1;exitX=0;exitY=0.5;exitDx=0;exitDy=0;startArrow=ERzeroToOne;startFill=0;endArrow=ERoneToMany;endFill=0;" edge="1" parent="1" source="SJSmvKwEZ4cIt8mxZRy5-460" target="SJSmvKwEZ4cIt8mxZRy5-549">
          <mxGeometry relative="1" as="geometry">
            <Array as="points">
              <mxPoint x="1060" y="459" />
              <mxPoint x="1060" y="615" />
            </Array>
          </mxGeometry>
        </mxCell>
        <mxCell id="SJSmvKwEZ4cIt8mxZRy5-570" style="edgeStyle=orthogonalEdgeStyle;rounded=0;orthogonalLoop=1;jettySize=auto;html=1;exitX=1;exitY=0.5;exitDx=0;exitDy=0;startArrow=ERzeroToOne;startFill=0;endArrow=ERoneToMany;endFill=0;" edge="1" parent="1" source="SJSmvKwEZ4cIt8mxZRy5-102" target="SJSmvKwEZ4cIt8mxZRy5-547">
          <mxGeometry relative="1" as="geometry" />
        </mxCell>
        <mxCell id="SJSmvKwEZ4cIt8mxZRy5-571" style="edgeStyle=orthogonalEdgeStyle;rounded=0;orthogonalLoop=1;jettySize=auto;html=1;exitX=0;exitY=0.5;exitDx=0;exitDy=0;endArrow=ERoneToMany;endFill=0;startArrow=ERmandOne;startFill=0;" edge="1" parent="1" source="SJSmvKwEZ4cIt8mxZRy5-545" target="SJSmvKwEZ4cIt8mxZRy5-558">
          <mxGeometry y="26" relative="1" as="geometry" />
        </mxCell>
        <mxCell id="SJSmvKwEZ4cIt8mxZRy5-572" style="edgeStyle=orthogonalEdgeStyle;rounded=0;orthogonalLoop=1;jettySize=auto;html=1;exitX=0;exitY=0.5;exitDx=0;exitDy=0;endArrow=ERoneToMany;endFill=0;startArrow=ERzeroToOne;startFill=0;" edge="1" parent="1" source="SJSmvKwEZ4cIt8mxZRy5-108" target="SJSmvKwEZ4cIt8mxZRy5-560">
          <mxGeometry relative="1" as="geometry">
            <Array as="points">
              <mxPoint x="710" y="321" />
              <mxPoint x="710" y="588" />
            </Array>
          </mxGeometry>
        </mxCell>
        <mxCell id="SJSmvKwEZ4cIt8mxZRy5-573" style="edgeStyle=orthogonalEdgeStyle;rounded=0;orthogonalLoop=1;jettySize=auto;html=1;entryX=1;entryY=0.5;entryDx=0;entryDy=0;endArrow=none;endFill=0;startArrow=ERzeroToOne;startFill=0;" edge="1" parent="1" source="SJSmvKwEZ4cIt8mxZRy5-458" target="SJSmvKwEZ4cIt8mxZRy5-560">
          <mxGeometry relative="1" as="geometry">
            <Array as="points">
              <mxPoint x="710" y="430" />
              <mxPoint x="710" y="588" />
            </Array>
          </mxGeometry>
        </mxCell>
      </root>
    </mxGraphModel>
  </diagram>
</mxfile>
